<svg width="599" height="598" viewBox="0 0 599 598" fill="none" xmlns="http://www.w3.org/2000/svg">
<g clip-path="url(#clip0_5_4)">
<path fill-rule="evenodd" clip-rule="evenodd" d="M-0.29248 -0.291992C199.374 -0.291992 399.041 -0.291992 598.708 -0.291992C598.708 199.041 598.708 398.375 598.708 597.708C399.041 597.708 199.374 597.708 -0.29248 597.708C-0.29248 398.375 -0.29248 199.041 -0.29248 -0.291992Z" fill="#DCF2FD"/>
<path fill-rule="evenodd" clip-rule="evenodd" d="M363.553 205.271C363.427 206.544 363.914 207.517 365.016 208.19C365.065 210.705 365.163 213.138 365.308 215.49C365.248 217.971 364.955 218.068 364.431 215.782C364.236 216.561 364.04 217.34 363.846 218.118C363.604 217.851 363.311 217.656 362.968 217.534C362.403 218.641 362.208 219.809 362.383 221.038C363.345 220.913 364.222 221.108 365.016 221.622C365.943 223.254 366.821 224.909 367.648 226.586C370.387 227.484 372.239 226.608 373.205 223.958C373.768 225.862 374.646 227.614 375.837 229.214C377.468 228.459 378.834 227.388 379.932 226.002C381.796 225.483 383.648 224.996 385.489 224.542C385.627 223.22 385.92 221.954 386.367 220.746C384.984 220.402 384.399 219.526 384.612 218.118C384.027 218.118 383.442 218.118 382.857 218.118C382.857 216.756 382.857 215.393 382.857 214.03C384.027 214.03 385.197 214.03 386.367 214.03C386.367 214.614 386.367 215.198 386.367 215.782C387.537 215.782 388.707 215.782 389.876 215.782C389.876 215.198 389.876 214.614 389.876 214.03C394.95 213.933 400.02 214.03 405.085 214.322C404.891 214.517 404.695 214.712 404.5 214.906C405.818 217.488 406.793 220.214 407.425 223.082C407.1 223.306 406.905 223.598 406.84 223.958C405.505 221.797 403.945 219.753 402.161 217.826C401.186 217.437 400.211 217.437 399.236 217.826C383.536 226.734 367.742 235.494 351.854 244.105C349.058 246.37 348.765 248.998 350.977 251.989C360.399 267.108 369.66 282.292 378.762 297.54C367.258 297.54 355.754 297.54 344.25 297.54C344.441 292.178 344.245 286.922 343.665 281.772C343.592 280.557 343.007 279.681 341.91 279.145C340.27 278.704 338.71 278.898 337.23 279.729C334.385 283.826 331.461 287.816 328.456 291.7C328.374 289.897 327.789 288.339 326.701 287.028C328.283 287.098 328.673 286.514 327.871 285.276C328.073 284.578 328.365 284.578 328.748 285.276C329.978 283.97 329.881 282.802 328.456 281.772C327.607 282.561 327.217 283.534 327.286 284.692C326.311 284.692 325.336 284.692 324.361 284.692C324.361 283.135 324.361 281.578 324.361 280.021C324.946 280.021 325.531 280.021 326.116 280.021C325.784 274.256 325.784 268.514 326.116 262.793C325.864 261.956 325.376 261.274 324.653 260.749C324.084 261.854 323.694 263.022 323.483 264.253C323.09 269.755 322.797 275.205 322.606 280.604C322.034 280.326 321.547 279.937 321.144 279.437C320.366 280.068 319.488 280.458 318.511 280.604C319.706 277.411 320.291 274.102 320.266 270.677C320.17 267.084 319.585 263.58 318.511 260.165C327.707 257.893 333.264 252.053 335.183 242.646C336.503 229.206 330.751 220.543 317.926 216.658C313.04 216.56 308.165 216.268 303.302 215.782C301.279 214.056 299.329 212.206 297.453 210.234C296.283 209.845 295.113 209.845 293.943 210.234C291.717 211.925 289.766 213.871 288.093 216.074C283.023 216.269 277.954 216.464 272.884 216.658C260.683 221.645 255.516 230.697 257.383 243.813C259.504 252.55 264.866 258.293 273.469 261.041C268.682 272.602 271.022 282.53 280.489 290.824C293.19 298.568 304.694 297.108 315.001 286.444C315.84 287.223 316.62 288.099 317.341 289.072C316.049 293.383 313.514 296.789 309.737 299.292C309.152 298.318 308.372 297.54 307.397 296.956C304.855 298.06 302.417 298.06 300.085 296.956C297.983 297.231 296.13 298.01 294.528 299.292C293.358 298.708 292.188 298.124 291.018 297.54C288.639 298.711 287.664 300.657 288.093 303.38C285.559 303.38 283.023 303.38 280.489 303.38C280.636 310.978 280.733 318.569 280.781 326.155C280.253 326.857 279.571 327.344 278.734 327.615C281.04 329.341 281.625 331.58 280.489 334.331C279.709 333.747 278.929 333.163 278.149 332.579C277.666 334.694 277.374 336.836 277.271 339.003C277.173 326.25 276.881 313.597 276.394 301.044C276.184 299.951 275.599 299.075 274.639 298.416C254.166 298.222 233.692 298.027 213.218 297.832C218.903 288.52 224.656 279.273 230.475 270.093C235.974 273.374 241.532 276.586 247.146 279.729C250.848 280.119 252.311 278.464 251.533 274.765C244.018 258.592 236.511 242.435 229.012 226.294C230.533 225.652 231.8 224.679 232.814 223.374C233.02 220.214 232.727 217.099 231.937 214.03C229.31 213.614 226.97 212.543 224.917 210.818C224.403 210.026 224.207 209.151 224.333 208.19C225.893 208.19 227.452 208.19 229.012 208.19C229.012 208.774 229.012 209.358 229.012 209.942C230.572 209.942 232.132 209.942 233.692 209.942C233.692 211.5 233.692 213.057 233.692 214.614C236.811 214.614 239.932 214.614 243.051 214.614C243.051 216.172 243.051 217.729 243.051 219.286C244.611 219.286 246.171 219.286 247.731 219.286C247.731 220.844 247.731 222.401 247.731 223.958C249.291 223.958 250.851 223.958 252.411 223.958C252.411 220.454 252.411 216.95 252.411 213.446C253.677 213.671 254.652 213.281 255.335 212.278C254.432 211.722 253.457 211.528 252.411 211.694C252.411 211.11 252.411 210.526 252.411 209.942C251.417 210.036 250.442 209.939 249.486 209.65C248.583 208.649 247.608 207.773 246.561 207.022C245.944 207.128 245.36 207.322 244.806 207.606C244.005 206.656 243.127 205.683 242.174 204.687C241.138 205.807 239.871 206.099 238.372 205.562C238.552 202.511 236.992 200.661 233.692 200.015C233.148 199.32 232.954 198.542 233.107 197.679C241.654 202.532 250.039 207.69 258.26 213.154C259.625 213.544 260.99 213.544 262.355 213.154C273.02 196.381 283.549 179.542 293.943 162.64C299.829 171.634 305.484 180.783 310.907 190.087C310.784 190.429 310.589 190.721 310.322 190.963C304.856 192.912 299.396 194.858 293.943 196.803C292.435 198.708 292.435 200.654 293.943 202.643C314.072 207.81 334.155 213.164 354.194 218.702C355.721 218.669 356.989 218.085 357.996 216.95C359.717 212.933 361.569 209.04 363.553 205.271Z" fill="#DCF1FB"/>
<path fill-rule="evenodd" clip-rule="evenodd" d="M363.553 205.271C361.569 209.04 359.717 212.933 357.996 216.95C356.989 218.085 355.721 218.669 354.194 218.702C334.155 213.164 314.072 207.81 293.943 202.643C292.435 200.654 292.435 198.708 293.943 196.803C299.396 194.858 304.856 192.912 310.322 190.963C310.589 190.721 310.784 190.429 310.907 190.087C305.484 180.783 299.829 171.634 293.943 162.64C283.549 179.543 273.02 196.381 262.355 213.154C260.99 213.544 259.625 213.544 258.26 213.154C250.039 207.69 241.654 202.532 233.107 197.679C226.128 192.827 218.913 188.252 211.463 183.955C210.497 183.097 209.912 182.026 209.708 180.743C217.791 166.555 225.883 152.345 233.984 138.112C239.671 129.379 247.763 124.415 258.26 123.221C282.829 122.831 307.397 122.831 331.965 123.221C338.499 124.194 343.861 127.211 348.052 132.272C353.583 142.053 359.335 151.689 365.308 161.18C370.452 159.199 375.522 156.863 380.517 154.172C384.203 153.424 385.861 154.884 385.489 158.552C378.02 174.049 370.708 189.622 363.553 205.271Z" fill="#070B09"/>
<path fill-rule="evenodd" clip-rule="evenodd" d="M313.247 196.511C311.554 197.11 309.994 197.986 308.567 199.139C309.062 200.173 309.842 200.854 310.907 201.183C308.816 201.071 306.866 200.487 305.057 199.431C307.532 197.763 310.262 196.79 313.247 196.511Z" fill="#619521"/>
<path fill-rule="evenodd" clip-rule="evenodd" d="M224.917 166.144C224.818 166.916 225.013 167.597 225.502 168.188C230.627 169.469 235.112 171.902 238.957 175.487C243.12 177.301 246.824 179.831 250.071 183.079C253.501 185.386 257.206 187.235 261.185 188.627C262.709 190.784 264.561 192.633 266.742 194.175C267.135 193.736 267.622 193.541 268.205 193.591C265.393 197.944 262.859 202.421 260.6 207.022C246.035 198.579 231.605 189.819 217.313 180.743C216.679 180.238 216.582 179.654 217.021 178.991C219.521 174.574 222.153 170.291 224.917 166.144Z" fill="#59B106"/>
<path fill-rule="evenodd" clip-rule="evenodd" d="M230.182 162.056C230.029 162.919 230.224 163.697 230.767 164.392C231.921 164.862 232.798 165.641 233.399 166.728C233.545 166.071 233.838 165.487 234.277 164.976C235.447 165.365 236.617 165.754 237.787 166.144C242.262 168.78 246.357 171.992 250.071 175.779C254.313 177.197 257.823 179.63 260.6 183.079C261.905 183.898 263.27 184.58 264.695 185.123C265.067 186.744 265.944 188.009 267.327 188.919C267.522 188.529 267.717 188.14 267.912 187.751C268.203 189.492 268.301 191.244 268.205 193.007C268.205 193.201 268.205 193.396 268.205 193.591C267.622 193.541 267.135 193.736 266.742 194.175C264.561 192.633 262.709 190.784 261.185 188.627C257.206 187.235 253.501 185.386 250.071 183.079C246.824 179.831 243.12 177.301 238.957 175.487C235.112 171.902 230.627 169.469 225.502 168.188C225.013 167.597 224.818 166.916 224.917 166.144C226.194 164.681 227.462 163.123 228.72 161.472C229.112 161.911 229.6 162.106 230.182 162.056Z" fill="#47A802"/>
<path fill-rule="evenodd" clip-rule="evenodd" d="M374.083 167.896C373.765 167.86 373.57 167.666 373.498 167.312C374.483 166.521 374.775 165.547 374.375 164.392C373.265 165.277 371.998 165.666 370.573 165.56C372.824 164.198 375.164 163.128 377.592 162.348C376.328 164.205 375.158 166.054 374.083 167.896Z" fill="#639D22"/>
<path fill-rule="evenodd" clip-rule="evenodd" d="M277.564 177.239C275.805 180.38 274.05 183.495 272.299 186.583C272.299 185.805 272.299 185.026 272.299 184.247C272.076 182.821 272.467 182.431 273.469 183.079C273.664 182.593 273.859 182.106 274.054 181.619C274.444 180.644 274.444 179.768 274.054 178.991C273.711 179.113 273.419 179.308 273.177 179.575C273.031 178.919 272.739 178.335 272.299 177.823C269.845 176.255 267.31 174.795 264.695 173.443C262.039 170.736 258.92 168.595 255.335 167.02C254.046 165.147 252.291 163.979 250.071 163.516C248.407 162.146 246.848 160.686 245.391 159.136C242.385 158.123 239.656 156.663 237.202 154.756C236.422 154.366 236.422 153.977 237.202 153.588C236.647 153.228 236.159 153.325 235.739 153.88C235.457 153.326 235.36 152.742 235.447 152.128C235.424 151.394 235.716 150.81 236.324 150.376C236.374 151.302 236.471 152.08 236.617 152.712C237.084 151.79 237.376 150.817 237.494 149.792C243.859 152.631 249.61 156.427 254.751 161.18C258.628 163.013 261.943 165.544 264.695 168.771C266.962 170.65 269.497 172.012 272.299 172.859C273.216 176.044 274.678 176.336 276.687 173.735C277.458 174.757 277.751 175.925 277.564 177.239Z" fill="#218802"/>
<path fill-rule="evenodd" clip-rule="evenodd" d="M272.299 184.247C272.299 185.026 272.299 185.805 272.299 186.583C271.365 189.042 269.999 191.184 268.205 193.007C268.301 191.244 268.203 189.492 267.912 187.751C267.717 188.141 267.522 188.529 267.327 188.919C265.944 188.009 265.067 186.744 264.695 185.123C263.27 184.58 261.905 183.898 260.6 183.079C257.823 179.63 254.313 177.197 250.071 175.779C246.357 171.992 242.262 168.78 237.787 166.144C236.617 165.754 235.447 165.365 234.277 164.976C233.838 165.487 233.545 166.071 233.399 166.728C232.798 165.641 231.921 164.862 230.767 164.392C230.224 163.697 230.029 162.919 230.182 162.056C230.695 162.132 231.085 161.938 231.352 161.472C230.817 160.988 230.427 160.404 230.182 159.72C231.157 155.826 232.132 155.826 233.107 159.72C233.692 159.33 234.277 158.941 234.862 158.552C236.839 159.846 238.984 160.722 241.296 161.18C246.995 165.384 252.454 169.861 257.675 174.611C258.782 175.18 259.952 175.569 261.185 175.779C264.195 178.422 267.51 180.466 271.129 181.911C270.929 183.069 271.319 183.848 272.299 184.247Z" fill="#3A9D03"/>
<path fill-rule="evenodd" clip-rule="evenodd" d="M235.447 152.128C235.36 152.742 235.457 153.326 235.739 153.88C236.159 153.325 236.647 153.228 237.202 153.588C236.422 153.977 236.422 154.366 237.202 154.756C239.656 156.663 242.385 158.123 245.391 159.136C246.848 160.686 248.407 162.146 250.071 163.516C252.291 163.979 254.046 165.147 255.335 167.02C258.92 168.595 262.039 170.736 264.695 173.443C267.31 174.795 269.845 176.255 272.299 177.823C272.739 178.335 273.031 178.919 273.177 179.575C273.419 179.308 273.711 179.113 274.054 178.991C274.444 179.768 274.444 180.644 274.054 181.619C273.859 182.106 273.664 182.593 273.469 183.079C272.467 182.431 272.076 182.821 272.299 184.247C271.319 183.848 270.929 183.069 271.129 181.911C267.51 180.466 264.195 178.422 261.185 175.779C259.952 175.569 258.782 175.18 257.675 174.611C252.454 169.861 246.994 165.384 241.296 161.18C238.984 160.722 236.839 159.846 234.862 158.552C234.277 158.941 233.692 159.33 233.107 159.72C232.132 155.826 231.157 155.826 230.182 159.72C230.427 160.404 230.817 160.988 231.352 161.472C231.085 161.938 230.695 162.132 230.182 162.056C229.6 162.106 229.112 161.911 228.72 161.472C227.462 163.123 226.194 164.681 224.917 166.144C226.621 162.154 228.766 158.455 231.352 155.048C232.593 153.977 233.959 153.004 235.447 152.128Z" fill="#2B9002"/>
<path fill-rule="evenodd" clip-rule="evenodd" d="M278.149 176.655C278.149 177.045 277.954 177.239 277.564 177.239C277.751 175.925 277.458 174.757 276.687 173.735C274.678 176.336 273.216 176.044 272.299 172.859C269.497 172.012 266.962 170.65 264.695 168.771C261.943 165.544 258.628 163.013 254.75 161.18C249.61 156.427 243.859 152.631 237.494 149.792C237.376 150.817 237.083 151.79 236.617 152.712C236.471 152.08 236.374 151.302 236.324 150.376C235.716 150.81 235.424 151.394 235.447 152.128C233.959 153.004 232.593 153.977 231.352 155.048C232.424 152.516 233.788 150.18 235.447 148.04C236.029 148.09 236.517 147.895 236.909 147.456C237.079 146.554 237.468 145.776 238.079 145.12C239.088 147.006 240.257 147.201 241.589 145.704C242.496 147.869 244.153 149.134 246.561 149.5C253.347 154.796 260.561 159.565 268.205 163.808C268.797 165.863 270.161 167.128 272.299 167.604C270.837 168.09 270.739 168.771 272.007 169.647C272.598 167.926 273.67 167.537 275.224 168.479C275.742 168.961 275.937 169.545 275.809 170.231C277.15 170.082 278.417 170.276 279.611 170.815C279.06 172.679 278.572 174.625 278.149 176.655Z" fill="#157D02"/>
<path fill-rule="evenodd" clip-rule="evenodd" d="M349.514 146.872C354.058 153.89 358.542 160.996 362.968 168.188C364.169 168.377 365.339 168.182 366.478 167.604C367.693 166.608 369.058 165.926 370.573 165.56C371.998 165.666 373.265 165.277 374.375 164.392C374.775 165.547 374.483 166.521 373.498 167.312C373.57 167.666 373.765 167.861 374.083 167.896C370.828 175.755 367.416 183.542 363.846 191.255C361.549 196.036 359.112 200.708 356.534 205.271C355.918 205.184 355.333 205.28 354.779 205.563C355.374 206.175 355.471 206.857 355.071 207.606C354.158 208.442 353.28 209.318 352.439 210.234C351.066 210.429 349.701 210.332 348.344 209.942C348.428 207.246 347.453 206.857 345.419 208.774C341.735 208.002 338.03 207.418 334.305 207.023C331.033 206.595 327.913 205.817 324.946 204.687C324.181 204.259 323.4 203.772 322.606 203.227C322.801 203.032 322.996 202.837 323.191 202.643C321.405 202.538 319.65 202.246 317.926 201.767C318.584 199.721 319.851 198.942 321.729 199.431C322.85 198.822 323.923 198.141 324.946 197.387C322.803 196.413 321.535 194.759 321.144 192.423C320.949 192.812 320.753 193.201 320.559 193.591C320.24 191.772 319.557 190.118 318.511 188.627C320.15 185.55 320.053 182.533 318.219 179.575C317.829 178.797 317.439 178.797 317.049 179.575C315.741 178.02 316.131 177.047 318.219 176.655C318.673 174.945 318.576 173.29 317.926 171.691C320.497 171.982 321.862 170.911 322.021 168.48C320.835 168.574 319.665 168.477 318.511 168.188C318.244 167.946 318.049 167.654 317.926 167.312C319.014 166.323 320.184 165.447 321.436 164.684C322.705 165.334 323.777 165.042 324.653 163.808C324.945 162.066 325.042 160.314 324.946 158.552C327.838 158.191 329.593 156.634 330.21 153.88C328.251 153.976 326.301 153.879 324.361 153.588C325.175 152.992 326.052 152.506 326.993 152.128C327.813 153.116 328.885 153.506 330.21 153.296C330.21 152.517 330.21 151.738 330.21 150.96C332.651 150.642 334.894 151.032 336.938 152.128C339.845 149.952 342.478 147.519 344.834 144.828C341.715 144.439 341.715 144.05 344.834 143.66C344.178 143.051 343.398 142.662 342.495 142.492C344.049 142.39 345.609 142.488 347.174 142.784C347.027 144.431 347.319 145.988 348.052 147.456C348.444 147.017 348.932 146.822 349.514 146.872Z" fill="#62B803"/>
<path fill-rule="evenodd" clip-rule="evenodd" d="M278.149 176.655C278.572 174.625 279.06 172.679 279.611 170.815C278.417 170.276 277.15 170.082 275.809 170.231C275.937 169.545 275.742 168.961 275.224 168.479C273.67 167.537 272.598 167.926 272.007 169.647C270.739 168.771 270.837 168.09 272.299 167.604C270.161 167.128 268.797 165.863 268.205 163.808C260.561 159.565 253.347 154.796 246.561 149.5C244.153 149.134 242.496 147.869 241.589 145.704C240.257 147.201 239.088 147.006 238.079 145.12C237.468 145.776 237.079 146.554 236.909 147.456C236.517 147.895 236.029 148.09 235.447 148.04C240.052 134.74 249.411 128.608 263.525 129.645C270.663 131.506 276.805 135.107 281.951 140.448C284.866 145.783 287.693 151.136 290.433 156.508C286.687 163.514 282.592 170.23 278.149 176.655Z" fill="#0A7103"/>
<path fill-rule="evenodd" clip-rule="evenodd" d="M278.149 129.937C295.987 129.354 313.926 129.159 331.965 129.353C335.067 129.41 337.797 130.384 340.155 132.272C337.978 132.265 336.028 131.973 334.305 131.396C335.085 131.007 335.085 130.618 334.305 130.229C329.017 129.782 323.752 129.977 318.511 130.812C320.452 131.103 322.401 131.201 324.361 131.104C324.361 132.467 324.361 133.83 324.361 135.192C322.181 135.004 320.036 135.199 317.926 135.776C321.022 136.357 324.141 136.552 327.286 136.36C327.286 136.944 327.286 137.528 327.286 138.112C323.837 138.436 320.522 138.047 317.341 136.944C314.728 139.206 312.193 141.542 309.737 143.952C307.792 144.728 306.038 145.798 304.472 147.164C303.983 147.754 303.788 148.436 303.887 149.208C302.075 149.157 301.88 149.449 303.302 150.084C302.291 151.129 301.901 152.394 302.132 153.88C301.445 153.752 300.86 153.946 300.377 154.464C299.866 155.776 299.671 157.139 299.792 158.552C301.221 158.466 301.611 158.953 300.962 160.012C301.498 160.23 301.986 160.522 302.425 160.888C303.326 164.387 304.886 167.502 307.104 170.231C307.391 170.987 307.489 171.766 307.397 172.567C300.001 160.923 292.884 149.049 286.046 136.944C283.663 134.27 281.03 131.934 278.149 129.937Z" fill="#59AB08"/>
<path fill-rule="evenodd" clip-rule="evenodd" d="M340.155 132.272C341.715 133.345 342.982 134.707 343.957 136.36C345.973 139.804 347.826 143.307 349.514 146.872C348.932 146.822 348.444 147.017 348.052 147.456C347.319 145.988 347.027 144.431 347.174 142.784C345.609 142.488 344.049 142.39 342.495 142.492C343.398 142.662 344.178 143.05 344.834 143.66C341.715 144.05 341.715 144.439 344.834 144.828C342.478 147.519 339.845 149.952 336.937 152.128C334.894 151.032 332.651 150.642 330.21 150.96C330.21 151.738 330.21 152.517 330.21 153.296C328.885 153.506 327.813 153.116 326.993 152.128C326.052 152.506 325.175 152.992 324.361 153.588C326.301 153.879 328.251 153.976 330.21 153.88C329.593 156.634 327.838 158.191 324.946 158.552C325.042 160.314 324.945 162.066 324.653 163.808C323.777 165.042 322.705 165.334 321.436 164.684C320.184 165.447 319.014 166.323 317.926 167.312C318.049 167.654 318.244 167.946 318.511 168.188C319.665 168.477 320.835 168.574 322.021 168.479C321.862 170.911 320.497 171.982 317.926 171.691C318.576 173.29 318.673 174.945 318.219 176.655C316.131 177.047 315.741 178.019 317.049 179.575C317.439 178.797 317.829 178.797 318.219 179.575C320.053 182.532 320.15 185.55 318.511 188.627C319.557 190.118 320.24 191.772 320.559 193.591C320.753 193.201 320.949 192.812 321.144 192.423C321.535 194.759 322.802 196.413 324.946 197.387C323.923 198.141 322.85 198.822 321.729 199.431C319.851 198.942 318.584 199.721 317.926 201.767C319.65 202.246 321.405 202.538 323.191 202.643C322.996 202.837 322.801 203.032 322.606 203.227C323.4 203.772 324.181 204.259 324.946 204.687C320.112 203.88 315.432 202.712 310.907 201.183C309.842 200.854 309.062 200.173 308.567 199.139C309.994 197.986 311.554 197.111 313.247 196.511C315.275 195.607 317.225 194.536 319.096 193.299C315.29 186.299 311.39 179.389 307.397 172.567C307.489 171.766 307.391 170.987 307.104 170.231C304.886 167.502 303.326 164.387 302.425 160.888C301.986 160.522 301.498 160.23 300.962 160.012C301.611 158.953 301.221 158.466 299.792 158.552C299.671 157.139 299.866 155.776 300.377 154.464C300.86 153.946 301.445 153.752 302.132 153.88C301.901 152.394 302.291 151.129 303.302 150.084C301.88 149.449 302.075 149.157 303.887 149.208C303.788 148.436 303.983 147.754 304.472 147.164C306.038 145.798 307.792 144.728 309.737 143.952C312.193 141.542 314.728 139.206 317.341 136.944C320.522 138.047 323.837 138.436 327.286 138.112C327.286 137.528 327.286 136.944 327.286 136.36C324.141 136.552 321.022 136.357 317.926 135.776C320.036 135.199 322.181 135.004 324.361 135.192C324.361 133.83 324.361 132.467 324.361 131.104C322.401 131.201 320.452 131.103 318.511 130.813C323.752 129.977 329.017 129.782 334.305 130.229C335.085 130.618 335.085 131.007 334.305 131.396C336.028 131.973 337.978 132.265 340.155 132.272Z" fill="#5CB104"/>
<path fill-rule="evenodd" clip-rule="evenodd" d="M331.965 129.353C313.926 129.159 295.987 129.354 278.149 129.937C277.687 129.771 277.297 129.479 276.979 129.061C295.407 128.575 313.736 128.673 331.965 129.353Z" fill="#2A4F08"/>
<path fill-rule="evenodd" clip-rule="evenodd" d="M356.534 205.27C355.754 207.606 354.974 209.942 354.194 212.278C352.018 212.241 349.873 211.949 347.759 211.402C343.147 210.119 338.662 208.659 334.305 207.022C338.03 207.418 341.735 208.002 345.419 208.774C347.453 206.857 348.428 207.246 348.344 209.942C349.701 210.332 351.066 210.429 352.439 210.234C353.28 209.318 354.158 208.442 355.071 207.606C355.471 206.857 355.374 206.175 354.779 205.562C355.333 205.28 355.918 205.183 356.534 205.27Z" fill="#6BAF17"/>
<path fill-rule="evenodd" clip-rule="evenodd" d="M318.511 280.605C317.35 282.53 316.18 284.477 315.001 286.444C304.694 297.108 293.19 298.568 280.489 290.824C271.022 282.53 268.682 272.602 273.469 261.041C264.866 258.293 259.504 252.55 257.383 243.814C255.516 230.697 260.683 221.645 272.884 216.658C277.954 216.464 283.023 216.269 288.093 216.074C289.766 213.871 291.717 211.925 293.943 210.234C295.113 209.845 296.283 209.845 297.453 210.234C299.329 212.207 301.279 214.056 303.302 215.782C308.165 216.268 313.04 216.56 317.926 216.658C330.751 220.543 336.503 229.206 335.183 242.646C333.264 252.053 327.707 257.893 318.511 260.165C319.585 263.58 320.17 267.084 320.266 270.677C320.291 274.102 319.706 277.411 318.511 280.605Z" fill="#05080B"/>
<path fill-rule="evenodd" clip-rule="evenodd" d="M300.377 221.622C306.333 221.431 312.183 221.626 317.926 222.206C315.533 223.021 312.999 223.507 310.322 223.666C310.589 223.908 310.784 224.2 310.907 224.542C310.472 224.94 310.083 225.33 309.737 225.71C298.816 225.807 287.897 225.71 276.979 225.418C275.575 225.309 274.21 225.017 272.884 224.542C274.267 223.61 275.827 222.929 277.564 222.498C282.049 222.304 286.533 222.109 291.018 221.914C292.523 220.502 294.083 219.236 295.698 218.118C297.146 218.806 297.73 219.973 297.453 221.622C298.428 221.622 299.402 221.622 300.377 221.622Z" fill="#1179B7"/>
<path fill-rule="evenodd" clip-rule="evenodd" d="M313.832 226.294C316.63 226.847 318.677 228.404 319.974 230.966C320.266 235.439 320.363 239.916 320.266 244.397C319.605 247.198 318.046 249.339 315.586 250.821C314.807 250.821 314.026 250.821 313.247 250.821C301.142 250.989 289.053 250.794 276.979 250.237C276.012 250.144 275.232 249.755 274.639 249.069C274.318 247.667 273.831 246.304 273.177 244.981C272.582 239.453 272.875 234.003 274.054 228.63C274.516 227.874 275.101 227.193 275.809 226.586C288.482 226.294 301.156 226.196 313.832 226.294Z" fill="#020204"/>
<path fill-rule="evenodd" clip-rule="evenodd" d="M282.829 233.302C284.254 233.195 285.521 233.584 286.631 234.47C287.19 236.848 286.898 239.086 285.753 241.186C284.426 241.628 283.159 241.531 281.951 240.894C281.353 238.19 281.646 235.66 282.829 233.302Z" fill="#E9E9E9"/>
<path fill-rule="evenodd" clip-rule="evenodd" d="M306.812 233.302C308.49 233.059 309.757 233.643 310.614 235.054C311.213 237.283 310.92 239.327 309.737 241.186C308.26 241.709 306.992 241.417 305.935 240.31C305.346 237.797 305.639 235.461 306.812 233.302Z" fill="#ECECEC"/>
<path fill-rule="evenodd" clip-rule="evenodd" d="M317.926 222.206C328.118 226.595 331.725 234.187 328.748 244.981C326.886 250.25 323.278 253.559 317.926 254.909C318.326 253.93 319.106 253.541 320.266 253.741C320.173 252.749 320.27 251.776 320.559 250.821C321.15 251.31 321.833 251.505 322.606 251.405C322.769 249.776 322.378 248.316 321.436 247.025C322.392 245.408 323.27 243.753 324.068 242.062C324.609 242.381 325.097 242.77 325.531 243.229C324.595 244.638 323.816 246.098 323.191 247.609C323.146 249.219 323.926 249.9 325.531 249.653C325.437 248.661 325.534 247.688 325.823 246.733C327.136 245.67 327.818 244.308 327.871 242.646C327.286 242.646 326.701 242.646 326.116 242.646C326.308 239.12 326.113 235.616 325.531 232.134C324.474 232.927 323.597 232.732 322.898 231.55C322.119 231.939 321.534 232.523 321.144 233.302C321.043 237.105 320.75 240.804 320.266 244.397C320.363 239.916 320.266 235.439 319.974 230.966C318.677 228.404 316.63 226.847 313.832 226.294C312.599 225.729 311.234 225.534 309.737 225.71C310.083 225.33 310.472 224.94 310.907 224.542C310.784 224.2 310.589 223.908 310.322 223.666C312.999 223.507 315.533 223.021 317.926 222.206Z" fill="#1179AE"/>
<path fill-rule="evenodd" clip-rule="evenodd" d="M274.054 228.63C272.875 234.003 272.582 239.453 273.177 244.981C273.831 246.304 274.318 247.667 274.639 249.069C272.032 246.01 271.057 242.41 271.714 238.266C271.812 236.027 271.909 233.788 272.007 231.55C272.415 230.333 273.097 229.359 274.054 228.63Z" fill="#05101F"/>
<path fill-rule="evenodd" clip-rule="evenodd" d="M276.979 250.237C289.053 250.794 301.142 250.989 313.247 250.821C301.647 251.5 289.948 251.597 278.149 251.113C277.613 250.951 277.224 250.659 276.979 250.237Z" fill="#003051"/>
<path fill-rule="evenodd" clip-rule="evenodd" d="M317.926 254.909C303.069 255.185 288.251 254.893 273.469 254.033C274.507 253.467 275.579 252.98 276.687 252.573C278.32 254.137 279.783 254.039 281.074 252.281C292.201 251.947 303.316 251.947 314.417 252.281C314.932 251.868 315.321 251.381 315.586 250.821C318.046 249.339 319.605 247.198 320.266 244.397C320.75 240.804 321.043 237.105 321.144 233.302C321.534 232.523 322.119 231.939 322.898 231.55C323.597 232.732 324.474 232.927 325.531 232.134C326.113 235.616 326.308 239.12 326.116 242.646C326.701 242.646 327.286 242.646 327.871 242.646C327.818 244.308 327.136 245.67 325.823 246.733C325.534 247.688 325.437 248.661 325.531 249.653C323.926 249.9 323.146 249.219 323.191 247.609C323.816 246.098 324.595 244.638 325.531 243.229C325.097 242.77 324.609 242.381 324.068 242.062C323.27 243.753 322.392 245.408 321.436 247.025C322.378 248.316 322.769 249.776 322.606 251.405C321.833 251.505 321.15 251.31 320.559 250.821C320.27 251.776 320.173 252.749 320.266 253.741C319.106 253.541 318.326 253.93 317.926 254.909Z" fill="#0975B4"/>
<path fill-rule="evenodd" clip-rule="evenodd" d="M300.377 221.622C299.402 221.622 298.428 221.622 297.453 221.622C297.731 219.973 297.146 218.806 295.698 218.118C294.083 219.236 292.523 220.502 291.018 221.914C286.533 222.109 282.049 222.304 277.564 222.498C275.827 222.929 274.267 223.61 272.884 224.542C274.21 225.017 275.575 225.309 276.979 225.418C287.897 225.71 298.816 225.807 309.737 225.71C311.234 225.534 312.599 225.729 313.832 226.294C301.156 226.196 288.482 226.294 275.809 226.586C275.101 227.193 274.516 227.874 274.054 228.63C273.097 229.359 272.415 230.333 272.007 231.55C271.909 233.788 271.812 236.027 271.714 238.266C271.057 242.41 272.032 246.01 274.639 249.069C275.232 249.755 276.012 250.144 276.979 250.237C277.224 250.659 277.613 250.951 278.149 251.113C289.948 251.597 301.647 251.5 313.247 250.821C314.026 250.821 314.807 250.821 315.586 250.821C315.321 251.381 314.932 251.868 314.417 252.281C303.316 251.947 292.201 251.947 281.074 252.281C279.783 254.039 278.32 254.137 276.687 252.573C275.579 252.98 274.507 253.467 273.469 254.033C288.251 254.893 303.069 255.185 317.926 254.909C303.597 255.588 289.168 255.686 274.639 255.201C268.497 253.741 264.695 249.945 263.232 243.813C261.355 236.327 263.208 230.001 268.79 224.834C270.857 223.218 273.197 222.245 275.809 221.914C280.684 221.72 285.559 221.525 290.433 221.33C292.1 219.569 293.855 217.914 295.698 216.366C297.688 217.768 299.248 219.52 300.377 221.622Z" fill="#1271A6"/>
<path fill-rule="evenodd" clip-rule="evenodd" d="M295.698 264.253C297.657 264.157 299.607 264.254 301.547 264.545C302.157 265.665 302.839 266.735 303.595 267.757C305.203 264.829 305.69 264.829 305.057 267.757C304.588 268.605 304.296 269.578 304.18 270.677C302.252 271.73 300.204 272.022 298.038 271.553C299.358 269.939 299.066 268.479 297.16 267.173C296.269 268.957 295.099 270.514 293.65 271.845C292.638 271.12 291.566 270.536 290.433 270.093C290.368 269.732 290.173 269.44 289.848 269.217C290.652 267.708 291.529 266.248 292.48 264.837C293.474 264.308 294.547 264.113 295.698 264.253Z" fill="#081213"/>
<path fill-rule="evenodd" clip-rule="evenodd" d="M312.077 261.333C307.393 261.236 302.713 261.333 298.038 261.625C298.623 261.819 299.208 262.015 299.792 262.209C297.622 262.311 295.477 262.603 293.358 263.085C294.206 263.477 294.985 263.867 295.698 264.253C294.547 264.113 293.474 264.308 292.48 264.837C291.529 266.248 290.652 267.708 289.848 269.217C290.173 269.44 290.368 269.732 290.433 270.093C289.848 270.287 289.458 270.677 289.263 271.261C287.614 271.114 286.054 271.406 284.583 272.137C285.138 272.419 285.723 272.516 286.338 272.429C286.372 273.821 286.176 275.184 285.753 276.517C286.721 278.836 287.501 281.172 288.093 283.524C289.326 284.09 290.691 284.285 292.188 284.108C291.597 285.28 291.012 286.448 290.433 287.612C290.496 288.162 290.691 288.649 291.018 289.072C293.741 289.364 296.47 289.461 299.208 289.364C288.061 291.143 280.554 286.666 276.687 275.933C275.7 270.688 276.577 265.822 279.319 261.333C290.333 260.557 301.253 260.557 312.077 261.333Z" fill="#54C7D2"/>
<path fill-rule="evenodd" clip-rule="evenodd" d="M289.263 271.261C290.151 271.267 290.833 271.656 291.311 272.429C292.116 273.745 292.993 275.01 293.943 276.225C292.065 275.628 290.7 276.31 289.848 278.269C291.561 278.843 293.316 279.038 295.113 278.853C295.113 280.021 295.113 281.188 295.113 282.356C293.048 283.479 290.709 283.868 288.093 283.524C287.501 281.172 286.721 278.836 285.753 276.517C286.176 275.184 286.372 273.821 286.338 272.429C285.723 272.516 285.138 272.419 284.583 272.137C286.054 271.406 287.614 271.114 289.263 271.261Z" fill="#060F11"/>
<path fill-rule="evenodd" clip-rule="evenodd" d="M305.057 267.757C304.885 269.062 305.08 270.23 305.642 271.261C304.191 272.085 302.827 273.058 301.547 274.181C302.16 275.892 303.134 277.352 304.472 278.561C302.912 278.95 301.353 278.95 299.792 278.561C300.387 277.948 300.485 277.266 300.085 276.517C299.134 278.051 297.964 279.414 296.575 280.604C296.271 281.649 296.466 282.623 297.16 283.524C298.33 284.303 299.305 285.276 300.085 286.444C300.208 285.534 300.5 284.756 300.962 284.108C301.206 285.614 300.816 286.88 299.792 287.904C300.228 288.511 300.813 288.803 301.547 288.78C300.923 289.326 300.143 289.521 299.208 289.364C296.47 289.461 293.741 289.364 291.018 289.072C290.691 288.649 290.496 288.162 290.433 287.612C291.012 286.448 291.597 285.28 292.188 284.108C293.358 284.108 294.528 284.108 295.698 284.108C295.836 283.354 295.642 282.77 295.113 282.356C295.113 281.188 295.113 280.021 295.113 278.853C293.316 279.038 291.561 278.843 289.848 278.269C290.7 276.31 292.065 275.628 293.943 276.225C292.993 275.01 292.116 273.745 291.311 272.429C290.833 271.656 290.151 271.267 289.263 271.261C289.458 270.677 289.848 270.287 290.433 270.093C291.566 270.536 292.638 271.12 293.65 271.845C295.099 270.514 296.269 268.957 297.16 267.173C299.066 268.479 299.358 269.939 298.038 271.553C300.204 272.022 302.252 271.73 304.18 270.677C304.296 269.578 304.588 268.605 305.057 267.757Z" fill="#7AD8DD"/>
<path fill-rule="evenodd" clip-rule="evenodd" d="M312.077 261.333C316.984 270.712 315.424 278.985 307.397 286.152C305.654 287.509 303.704 288.385 301.547 288.78C300.813 288.803 300.228 288.511 299.792 287.904C300.816 286.88 301.206 285.614 300.962 284.108C302.193 284.283 303.363 284.089 304.472 283.524C305.394 281.341 306.662 279.395 308.274 277.685C308.665 277.101 308.665 276.517 308.274 275.933C307.567 274.157 306.689 272.599 305.642 271.261C305.08 270.23 304.885 269.062 305.057 267.757C305.69 264.829 305.203 264.829 303.595 267.757C302.839 266.735 302.157 265.665 301.547 264.545C299.607 264.254 297.657 264.157 295.698 264.253C294.985 263.867 294.206 263.477 293.358 263.085C295.477 262.603 297.622 262.311 299.792 262.209C299.208 262.014 298.623 261.819 298.038 261.625C302.713 261.333 307.393 261.236 312.077 261.333Z" fill="#9AE9EE"/>
<path fill-rule="evenodd" clip-rule="evenodd" d="M305.642 271.261C306.689 272.599 307.567 274.157 308.274 275.933C308.665 276.517 308.665 277.101 308.274 277.685C306.662 279.395 305.394 281.341 304.472 283.524C303.363 284.089 302.193 284.283 300.962 284.108C300.5 284.756 300.208 285.534 300.085 286.444C299.305 285.276 298.33 284.303 297.16 283.524C296.466 282.623 296.271 281.649 296.575 280.604C297.964 279.414 299.134 278.051 300.085 276.517C300.485 277.266 300.387 277.948 299.792 278.561C301.353 278.95 302.912 278.95 304.472 278.561C303.134 277.352 302.16 275.892 301.547 274.181C302.827 273.058 304.191 272.085 305.642 271.261Z" fill="#061011"/>
<path fill-rule="evenodd" clip-rule="evenodd" d="M295.113 282.356C295.642 282.77 295.836 283.354 295.698 284.108C294.528 284.108 293.358 284.108 292.188 284.108C290.691 284.285 289.326 284.09 288.093 283.524C290.709 283.868 293.048 283.479 295.113 282.356Z" fill="#07373A"/>
<path fill-rule="evenodd" clip-rule="evenodd" d="M229.012 226.294C236.511 242.435 244.018 258.592 251.533 274.765C252.311 278.464 250.848 280.119 247.146 279.729C241.532 276.586 235.974 273.374 230.475 270.093C224.656 279.273 218.904 288.52 213.218 297.832C233.692 298.026 254.166 298.222 274.639 298.416C275.599 299.075 276.184 299.951 276.394 301.044C276.492 320.317 276.394 339.588 276.102 358.858C275.809 359.15 275.517 359.442 275.224 359.734C256.75 360.699 238.227 360.894 219.653 360.318C209.376 357.775 201.479 352.032 195.962 343.091C186.68 326.047 176.93 309.307 166.714 292.868C158.818 279.94 158.623 266.898 166.129 253.741C169.57 248.72 172.787 243.562 175.781 238.266C170.483 235.328 165.023 232.602 159.402 230.09C156.96 227.575 157.154 225.239 159.987 223.082C180.995 220.265 202.053 218.124 223.163 216.658C224 216.93 224.682 217.417 225.21 218.118C226.538 220.836 227.805 223.561 229.012 226.294Z" fill="#040705"/>
<path fill-rule="evenodd" clip-rule="evenodd" d="M171.686 256.661C171.747 258.174 171.357 259.536 170.516 260.749C170.711 261.139 170.906 261.527 171.101 261.917C171.625 261.33 172.015 261.33 172.271 261.917C171.854 263.246 171.561 264.609 171.394 266.005C171.199 265.421 171.003 264.837 170.809 264.253C170.573 265.054 170.281 265.833 169.931 266.589C171.603 269.821 173.748 272.741 176.366 275.349C176.935 276.659 177.131 278.021 176.951 279.437C175.088 279.338 174.796 280.117 176.073 281.772C176.315 282.039 176.608 282.234 176.951 282.356C177.632 281.778 178.315 281.194 178.998 280.604C181.662 281.31 182.929 283.062 182.8 285.86C185.274 286.833 186.736 288.585 187.188 291.116C188.43 291.771 189.502 292.647 190.405 293.744C191.131 293.926 191.716 293.634 192.16 292.868C192.717 293.77 192.911 294.744 192.745 295.788C194.332 295.642 195.892 295.545 197.424 295.496C198.677 296.26 199.847 297.136 200.934 298.124C200.03 298.68 199.055 298.874 198.009 298.708C197.814 301.044 197.619 301.044 197.424 298.708C196.737 298.58 196.152 298.775 195.669 299.292C197.444 301.692 197.834 304.223 196.839 306.884C197.05 308.115 197.44 309.283 198.009 310.388C198.449 308.774 199.034 307.217 199.764 305.716C200.482 304.652 201.457 304.068 202.689 303.964C198.47 309.71 195.935 316.134 195.084 323.235C194.637 323.482 194.15 323.677 193.622 323.819C192.791 322.518 191.719 321.544 190.405 320.899C183.142 308.539 175.733 296.275 168.176 284.108C166.731 279.771 166.146 275.293 166.421 270.677C166.583 265.348 168.338 260.677 171.686 256.661Z" fill="#5AAB06"/>
<path fill-rule="evenodd" clip-rule="evenodd" d="M166.421 270.677C166.146 275.293 166.731 279.771 168.176 284.108C167.233 283.849 166.55 283.265 166.129 282.356C165.649 278.358 165.746 274.465 166.421 270.677Z" fill="#0C1B01"/>
<path fill-rule="evenodd" clip-rule="evenodd" d="M180.46 242.646C180.121 245.162 179.926 247.693 179.875 250.237C180.46 250.237 181.045 250.237 181.63 250.237C181.79 251.377 181.4 252.253 180.46 252.865C181.875 253.746 182.46 255.011 182.215 256.661C179.282 256.873 179.184 257.652 181.923 258.997C182.209 259.752 182.307 260.531 182.215 261.333C183.775 261.333 185.335 261.333 186.895 261.333C186.895 262.89 186.895 264.447 186.895 266.005C183.961 266.217 183.864 266.996 186.603 268.341C186.889 269.096 186.987 269.875 186.895 270.677C188.581 270.74 189.946 271.421 190.99 272.721C191.505 273.513 191.7 274.389 191.575 275.349C193.182 275.166 194.742 275.36 196.254 275.933C199.441 278.969 202.755 281.889 206.199 284.692C206.394 283.914 206.589 283.135 206.784 282.356C205.909 280.145 205.519 277.809 205.614 275.349C206.199 275.349 206.784 275.349 207.369 275.349C207.369 276.711 207.369 278.074 207.369 279.437C208.635 279.212 209.61 279.602 210.293 280.604C208.44 282.16 207.758 284.107 208.246 286.444C209.482 285.03 210.651 285.03 211.756 286.444C212.547 284.564 213.035 282.617 213.218 280.604C214.193 280.604 215.168 280.604 216.143 280.604C216.143 279.631 216.143 278.658 216.143 277.685C216.923 277.685 217.703 277.685 218.483 277.685C213.666 286.718 208.402 295.478 202.689 303.964C201.457 304.068 200.482 304.652 199.764 305.716C199.034 307.217 198.449 308.774 198.009 310.388C197.44 309.283 197.05 308.115 196.839 306.884C197.834 304.223 197.444 301.692 195.669 299.292C196.152 298.775 196.737 298.58 197.424 298.708C197.619 301.044 197.814 301.044 198.009 298.708C199.055 298.874 200.03 298.68 200.934 298.124C199.847 297.136 198.677 296.26 197.424 295.496C195.892 295.545 194.332 295.642 192.745 295.788C192.911 294.744 192.717 293.77 192.16 292.868C191.716 293.634 191.131 293.926 190.405 293.744C189.502 292.647 188.43 291.771 187.188 291.116C186.736 288.585 185.274 286.833 182.8 285.86C182.929 283.062 181.662 281.31 178.998 280.604C178.315 281.194 177.632 281.778 176.951 282.356C176.608 282.234 176.315 282.039 176.073 281.772C174.796 280.117 175.088 279.338 176.951 279.437C177.131 278.021 176.935 276.659 176.366 275.349C173.748 272.741 171.603 269.821 169.931 266.589C170.281 265.833 170.573 265.054 170.809 264.253C171.003 264.837 171.199 265.421 171.394 266.005C171.561 264.609 171.854 263.246 172.271 261.917C172.015 261.33 171.625 261.33 171.101 261.917C170.906 261.527 170.711 261.139 170.516 260.749C171.357 259.536 171.747 258.174 171.686 256.661C174.32 251.788 177.245 247.116 180.46 242.646Z" fill="#5DB003"/>
<path fill-rule="evenodd" clip-rule="evenodd" d="M181.045 226.878C180.98 227.238 180.786 227.53 180.46 227.754C177.536 227.948 174.611 228.143 171.686 228.338C172.201 228.751 172.591 229.238 172.856 229.798C171.561 229.595 170.392 229.108 169.346 228.338C173.148 227.205 177.048 226.718 181.045 226.878Z" fill="#639D21"/>
<path fill-rule="evenodd" clip-rule="evenodd" d="M218.483 277.685C217.703 277.685 216.923 277.685 216.143 277.685C216.143 278.658 216.143 279.631 216.143 280.604C215.168 280.604 214.193 280.604 213.218 280.604C213.035 282.617 212.547 284.564 211.756 286.444C210.651 285.03 209.482 285.03 208.246 286.444C207.758 284.107 208.44 282.16 210.293 280.604C209.61 279.602 208.635 279.212 207.369 279.437C207.369 278.074 207.369 276.711 207.369 275.349C206.784 275.349 206.199 275.349 205.614 275.349C205.519 277.809 205.909 280.145 206.784 282.356C206.589 283.135 206.394 283.914 206.199 284.692C202.755 281.889 199.441 278.969 196.254 275.933C194.742 275.36 193.182 275.166 191.575 275.349C191.7 274.389 191.505 273.513 190.99 272.721C189.946 271.421 188.581 270.74 186.895 270.677C186.987 269.875 186.889 269.096 186.603 268.341C183.864 266.996 183.961 266.217 186.895 266.005C186.895 264.447 186.895 262.89 186.895 261.333C185.335 261.333 183.775 261.333 182.215 261.333C182.307 260.531 182.209 259.752 181.923 258.997C179.184 257.652 179.282 256.873 182.215 256.661C182.46 255.011 181.875 253.746 180.46 252.865C181.4 252.253 181.79 251.377 181.63 250.237C181.045 250.237 180.46 250.237 179.875 250.237C179.926 247.693 180.121 245.162 180.46 242.646C181.545 240.383 182.715 238.145 183.97 235.93C183.519 235.217 182.934 234.633 182.215 234.178C178.911 232.987 175.791 231.527 172.856 229.798C172.591 229.238 172.201 228.751 171.686 228.338C174.611 228.143 177.536 227.948 180.46 227.754C180.786 227.53 180.98 227.238 181.045 226.878C193.486 224.924 206.063 223.366 218.775 222.206C219.615 222.241 220.395 222.435 221.115 222.79C228.427 238.46 235.739 254.131 243.051 269.801C242.954 270.093 242.856 270.385 242.759 270.677C238.143 267.738 233.366 265.013 228.427 262.501C225.078 267.586 221.763 272.647 218.483 277.685Z" fill="#62B705"/>
<path fill-rule="evenodd" clip-rule="evenodd" d="M406.84 223.958C413.414 234.94 420.141 245.842 427.021 256.661C432.666 267.051 432.861 277.563 427.606 288.196C416.196 307.863 405.081 327.719 394.264 347.763C389.76 354.639 383.423 358.825 375.252 360.318C364.725 360.61 354.196 360.708 343.665 360.61C343.762 366.648 343.665 372.682 343.372 378.714C341.863 379.793 340.206 380.085 338.4 379.59C326.697 363.034 314.998 346.487 303.302 329.951C311.471 317.044 319.855 304.294 328.456 291.7C331.461 287.816 334.385 283.826 337.23 279.729C338.71 278.898 340.27 278.704 341.91 279.145C343.007 279.681 343.592 280.557 343.665 281.772C343.665 287.223 343.665 292.674 343.665 298.124C355.466 298.317 367.165 298.122 378.762 297.54C369.66 282.292 360.399 267.108 350.977 251.989C348.765 248.998 349.058 246.37 351.854 244.105C367.742 235.494 383.536 226.734 399.236 217.826C400.211 217.437 401.186 217.437 402.161 217.826C403.945 219.753 405.505 221.797 406.84 223.958Z" fill="#040806"/>
<path fill-rule="evenodd" clip-rule="evenodd" d="M411.52 303.964C411.648 303.278 411.453 302.694 410.935 302.212C410.016 302.684 409.041 302.879 408.01 302.796C409.634 301.668 411.388 301.279 413.275 301.628C412.678 302.446 412.093 303.225 411.52 303.964Z" fill="#5A862C"/>
<path fill-rule="evenodd" clip-rule="evenodd" d="M343.665 281.772C344.245 286.922 344.441 292.178 344.25 297.54C355.754 297.54 367.258 297.54 378.762 297.54C367.165 298.122 355.466 298.317 343.665 298.124C343.665 292.674 343.665 287.223 343.665 281.772Z" fill="#727C81"/>
<path fill-rule="evenodd" clip-rule="evenodd" d="M419.709 256.077C424.93 262.096 426.783 269.104 425.267 277.101C422.578 288.545 415.46 295.455 403.916 297.832C397.862 298.318 391.817 298.221 385.782 297.54C382.451 292.079 379.137 286.629 375.837 281.188C376.59 280.448 377.175 280.642 377.592 281.772C379.161 280.358 380.916 279.969 382.857 280.604C383.375 280.123 383.57 279.539 383.442 278.853C385.968 277.147 388.795 275.979 391.924 275.349C394.902 273.133 398.12 271.479 401.576 270.385C405.149 267.978 408.854 265.837 412.69 263.961C415.594 262.796 418.519 261.823 421.464 261.041C421.06 259.301 420.475 257.646 419.709 256.077Z" fill="#0B7104"/>
<path fill-rule="evenodd" clip-rule="evenodd" d="M416.2 250.237C417.579 252.016 418.749 253.963 419.709 256.077C420.475 257.646 421.06 259.301 421.464 261.041C418.519 261.823 415.594 262.796 412.69 263.961C408.854 265.837 405.149 267.978 401.576 270.385C398.12 271.479 394.902 273.133 391.924 275.349C388.795 275.979 385.968 277.147 383.442 278.853C383.57 279.539 383.375 280.123 382.857 280.604C380.916 279.969 379.161 280.358 377.592 281.772C377.175 280.642 376.59 280.448 375.837 281.188C373.937 278.37 372.183 275.45 370.573 272.429C370.934 272.364 371.226 272.169 371.45 271.845C371.747 273.249 372.43 273.638 373.498 273.013C373.958 273.446 374.348 273.932 374.667 274.473C375.815 274.39 376.888 274.488 377.885 274.765C380.465 273.668 383 272.5 385.489 271.261C385.684 271.455 385.879 271.65 386.074 271.845C388.23 269.768 390.863 268.698 393.971 268.633C400.278 265.777 406.322 262.468 412.105 258.705C414.854 259.632 416.998 258.854 418.54 256.369C417.129 254.578 416.349 252.534 416.2 250.237Z" fill="#147B02"/>
<path fill-rule="evenodd" clip-rule="evenodd" d="M415.03 249.069C415.615 249.264 416.005 249.653 416.2 250.237C416.349 252.534 417.129 254.578 418.54 256.369C416.998 258.854 414.854 259.632 412.105 258.705C406.322 262.468 400.278 265.777 393.971 268.633C390.863 268.698 388.23 269.768 386.074 271.845C385.879 271.65 385.684 271.455 385.489 271.261C383 272.5 380.465 273.668 377.885 274.765C376.888 274.488 375.815 274.39 374.667 274.473C374.348 273.932 373.958 273.446 373.498 273.013C372.43 273.638 371.747 273.249 371.45 271.845C371.226 272.169 370.934 272.364 370.573 272.429C369.265 270.799 368.095 269.047 367.063 267.173C368.358 267.818 369.625 267.818 370.865 267.173C371.268 267.673 371.756 268.062 372.328 268.341C381.965 263.252 391.715 258.385 401.576 253.741C401.918 253.863 402.211 254.058 402.453 254.325C405.395 253.634 408.125 252.466 410.643 250.821C411.655 253.807 412.435 253.807 412.982 250.821C413.87 250.434 414.553 249.85 415.03 249.069Z" fill="#248903"/>
<path fill-rule="evenodd" clip-rule="evenodd" d="M408.595 237.974C410.969 241.518 413.114 245.217 415.03 249.069C414.553 249.85 413.87 250.434 412.982 250.821C412.435 253.807 411.655 253.807 410.643 250.821C408.125 252.466 405.395 253.634 402.453 254.325C402.211 254.058 401.918 253.863 401.576 253.741C391.715 258.385 381.965 263.252 372.328 268.341C371.756 268.062 371.268 267.673 370.865 267.173C369.625 267.818 368.358 267.818 367.063 267.173C366.135 265.906 365.355 264.543 364.723 263.085C365.41 262.957 365.995 263.152 366.478 263.669C366.916 264.739 367.501 265.712 368.233 266.589C369.994 265.134 371.846 263.382 373.79 261.333C374.094 261.926 374.581 262.315 375.252 262.501C382.168 259.943 388.798 256.828 395.141 253.157C397.036 250.669 399.57 249.209 402.746 248.777C404.537 247.887 406.097 246.719 407.425 245.273C407.98 244.991 408.565 244.894 409.18 244.981C409.257 243.189 409.063 241.437 408.595 239.726C408.595 239.142 408.595 238.558 408.595 237.974Z" fill="#359904"/>
<path fill-rule="evenodd" clip-rule="evenodd" d="M408.595 239.726C409.063 241.437 409.257 243.189 409.18 244.981C408.565 244.894 407.98 244.991 407.425 245.273C406.097 246.719 404.537 247.887 402.746 248.777C399.57 249.209 397.036 250.669 395.141 253.157C388.798 256.828 382.168 259.943 375.252 262.501C374.581 262.315 374.094 261.926 373.79 261.333C371.846 263.382 369.994 265.134 368.233 266.589C367.501 265.712 366.916 264.739 366.478 263.669C365.995 263.152 365.41 262.957 364.723 263.085C363.513 261.482 362.539 259.73 361.798 257.829C362.829 257.913 363.804 257.718 364.723 257.245C365.128 257.552 365.42 257.941 365.601 258.413C366.38 257.635 367.161 257.635 367.94 258.413C370.682 257.185 373.509 256.211 376.422 255.493C376.323 254.721 376.518 254.04 377.007 253.449C381.292 252.188 385.386 250.436 389.292 248.193C393.688 244.97 398.368 242.244 403.331 240.018C403.648 238.701 404.33 237.63 405.378 236.806C406.375 237.899 407.447 238.873 408.595 239.726Z" fill="#42A403"/>
<path fill-rule="evenodd" clip-rule="evenodd" d="M387.537 230.966C387.051 233.414 385.491 234.582 382.857 234.47C382.512 235.228 381.927 235.715 381.102 235.93C381.297 236.124 381.492 236.319 381.687 236.514C379.909 236.72 378.35 237.401 377.007 238.558C377.13 238.9 377.325 239.192 377.592 239.434C376.768 239.649 376.183 240.135 375.837 240.894C376.71 241.328 377.587 241.717 378.47 242.062C379.213 240.697 380.09 240.697 381.102 242.062C379.389 242.636 377.634 242.831 375.837 242.646C375.864 244.427 375.279 245.985 374.083 247.317C373.126 248.007 372.151 248.007 371.158 247.317C370.682 248.641 370.389 250.004 370.28 251.405C369.464 252.589 368.489 252.783 367.356 251.989C367.011 253.369 366.134 253.953 364.723 253.741C364.81 253.127 364.713 252.543 364.431 251.989C364.236 252.184 364.041 252.379 363.846 252.573C362.461 251.139 360.804 250.653 358.874 251.113C360.173 252.963 360.954 255.007 361.213 257.245C359.764 255.142 358.302 253.001 356.826 250.821C356.252 250.086 356.057 249.308 356.241 248.485C366.457 242.281 376.889 236.441 387.537 230.966Z" fill="#57A90B"/>
<path fill-rule="evenodd" clip-rule="evenodd" d="M408.595 237.974C408.595 238.558 408.595 239.142 408.595 239.726C407.447 238.873 406.375 237.899 405.378 236.806C404.33 237.63 403.648 238.701 403.331 240.018C398.368 242.244 393.688 244.97 389.292 248.193C385.386 250.436 381.292 252.188 377.007 253.449C376.518 254.04 376.323 254.721 376.422 255.493C373.509 256.211 370.682 257.185 367.94 258.413C367.161 257.635 366.38 257.635 365.601 258.413C365.42 257.941 365.128 257.552 364.723 257.245C363.804 257.718 362.829 257.913 361.798 257.829C361.408 257.829 361.213 257.635 361.213 257.245C360.954 255.007 360.173 252.963 358.874 251.113C360.804 250.653 362.461 251.139 363.846 252.573C364.04 252.379 364.236 252.184 364.431 251.989C364.713 252.543 364.81 253.127 364.723 253.741C366.133 253.953 367.011 253.369 367.355 251.989C368.489 252.784 369.464 252.589 370.28 251.405C370.389 250.004 370.682 248.641 371.158 247.317C372.151 248.007 373.126 248.007 374.083 247.317C375.279 245.985 375.864 244.427 375.837 242.646C377.634 242.831 379.389 242.636 381.102 242.062C380.09 240.697 379.213 240.697 378.47 242.062C377.587 241.717 376.71 241.328 375.837 240.894C376.183 240.135 376.767 239.649 377.592 239.434C377.325 239.192 377.13 238.9 377.007 238.558C378.35 237.401 379.909 236.72 381.687 236.514C381.492 236.319 381.297 236.124 381.102 235.93C381.927 235.715 382.512 235.228 382.857 234.47C385.491 234.582 387.051 233.414 387.537 230.966C390.948 228.842 394.457 226.798 398.066 224.834C398.846 224.444 399.626 224.444 400.406 224.834C403.362 229.083 406.092 233.463 408.595 237.974Z" fill="#53AF04"/>
<path fill-rule="evenodd" clip-rule="evenodd" d="M269.375 303.964C263.72 303.964 258.065 303.964 252.411 303.964C237.98 303.866 223.551 303.964 209.124 304.256C208.423 305.433 207.644 306.504 206.784 307.468C206.834 306.196 207.224 305.028 207.954 303.964C228.523 303.187 248.997 303.187 269.375 303.964Z" fill="#001800"/>
<path fill-rule="evenodd" clip-rule="evenodd" d="M411.52 303.964C408.062 311.067 404.162 317.88 399.821 324.403C399.726 323.22 399.824 322.052 400.113 320.899C401.133 320.415 402.011 319.441 402.746 317.979C403.315 316.67 403.511 315.307 403.331 313.892C404.11 313.892 404.891 313.892 405.67 313.892C405.179 311.533 405.959 309.781 408.01 308.636C408.408 306.966 409.188 305.506 410.35 304.256C404.504 303.964 398.654 303.867 392.801 303.964C374.373 304.158 356.043 303.963 337.815 303.38C361.227 303.561 384.626 303.366 408.01 302.796C409.041 302.879 410.016 302.684 410.935 302.212C411.453 302.694 411.648 303.278 411.52 303.964Z" fill="#4F900E"/>
<path fill-rule="evenodd" clip-rule="evenodd" d="M337.815 303.38C356.043 303.963 374.373 304.158 392.801 303.964C384.908 304.449 376.913 304.741 368.818 304.84C364.234 305.093 364.234 305.677 368.818 306.592C364.333 306.786 359.849 306.981 355.364 307.176C359.264 307.565 359.264 307.954 355.364 308.344C355.891 309.845 356.671 311.208 357.704 312.432C357.157 313.822 356.962 315.282 357.119 316.812C357.892 316.712 358.575 316.907 359.166 317.396C359.457 318.941 359.554 320.498 359.458 322.067C360.238 322.067 361.019 322.067 361.798 322.067C361.618 323.483 361.814 324.845 362.383 326.155C363.302 326.628 364.277 326.823 365.308 326.739C365.114 332.786 365.309 338.821 365.893 344.843C368.356 345.662 370.892 346.149 373.498 346.303C371.95 346.593 370.39 346.69 368.818 346.595C368.818 347.179 368.818 347.763 368.818 348.347C367.648 348.347 366.478 348.347 365.308 348.347C365.308 348.931 365.308 349.515 365.308 350.099C368.214 350.486 371.139 350.778 374.083 350.975C371.548 351.169 369.013 351.364 366.478 351.559C371.557 352.245 376.627 352.342 381.687 351.851C380.008 353.19 378.059 353.969 375.837 354.187C363.163 354.187 350.489 354.187 337.815 354.187C337.815 357.69 337.815 361.194 337.815 364.698C337.91 365.882 337.812 367.05 337.522 368.202C328.404 355.251 319.142 342.403 309.737 329.659C318.999 316.228 328.261 302.796 337.522 289.364C337.815 294.032 337.912 298.704 337.815 303.38Z" fill="#63B605"/>
<path fill-rule="evenodd" clip-rule="evenodd" d="M252.411 303.964C251.378 304.525 250.208 304.72 248.901 304.548C246.951 304.548 245.001 304.548 243.051 304.548C239.904 304.445 236.785 304.64 233.692 305.132C225.857 304.884 218.058 305.176 210.293 306.008C208.929 309.224 206.784 311.852 203.859 313.892C204.683 311.663 205.658 309.522 206.784 307.468C207.644 306.504 208.423 305.433 209.124 304.256C223.551 303.964 237.98 303.866 252.411 303.964Z" fill="#1D6B14"/>
<path fill-rule="evenodd" clip-rule="evenodd" d="M233.692 305.132C232.248 305.609 230.688 305.901 229.012 306.008C230.56 306.298 232.12 306.396 233.692 306.3C233.172 322.385 233.172 338.347 233.692 354.187C235.252 354.187 236.811 354.187 238.372 354.187C240.711 354.187 243.051 354.187 245.391 354.187C247.731 354.187 250.071 354.187 252.411 354.187C253.581 354.187 254.75 354.187 255.92 354.187C260.405 354.187 264.89 354.187 269.374 354.187C269.765 354.187 270.154 354.187 270.544 354.187C253.68 354.866 236.716 354.963 219.653 354.479C209.501 351.741 203.359 345.22 201.227 334.915C199.914 329.019 200.109 323.179 201.812 317.396C202.362 316.095 203.045 314.927 203.859 313.892C206.784 311.852 208.929 309.224 210.293 306.008C218.058 305.176 225.857 304.884 233.692 305.132Z" fill="#0B7103"/>
<path fill-rule="evenodd" clip-rule="evenodd" d="M268.205 304.548C268.651 304.996 269.236 305.288 269.959 305.424C269.377 321.635 269.183 337.889 269.375 354.187C264.89 354.187 260.405 354.187 255.92 354.187C257.019 353.773 257.994 353.092 258.845 352.143C257.62 352.781 256.256 352.977 254.75 352.727C255.141 352.532 255.53 352.337 255.92 352.143C255.269 343.88 255.172 335.412 255.628 326.739C255.578 320.911 256.065 315.168 257.09 309.512C256.55 308.84 256.55 308.256 257.09 307.76C256.13 307.1 255.545 306.225 255.335 305.132C259.6 304.611 263.89 304.416 268.205 304.548Z" fill="#53B203"/>
<path fill-rule="evenodd" clip-rule="evenodd" d="M243.051 304.548C245.001 304.548 246.951 304.548 248.901 304.548C247.853 305.02 246.683 305.312 245.391 305.424C246.171 305.813 246.171 306.202 245.391 306.592C246.561 306.786 247.731 306.981 248.901 307.176C248.021 308.047 247.534 309.117 247.438 310.388C246.938 321.502 246.256 332.597 245.391 343.675C245.452 345.508 246.232 346.092 247.731 345.427C248.393 346.346 248.49 347.319 248.023 348.347C247.62 347.846 247.133 347.457 246.561 347.179C246.134 348.254 245.744 349.325 245.391 350.391C245.875 350.925 246.46 351.314 247.146 351.559C246.591 351.841 246.006 351.938 245.391 351.851C245.391 352.629 245.391 353.408 245.391 354.187C243.051 354.187 240.711 354.187 238.372 354.187C239.794 353.462 239.794 352.78 238.372 352.143C239.932 351.753 239.932 351.364 238.372 350.975C239.151 350.585 239.932 350.196 240.711 349.807C239.932 335.791 239.932 321.775 240.711 307.76C239.001 307.183 237.246 306.794 235.447 306.592C236.5 306.407 236.695 306.017 236.032 305.424C238.482 305.321 240.821 305.029 243.051 304.548Z" fill="#278D03"/>
<path fill-rule="evenodd" clip-rule="evenodd" d="M255.335 305.132C255.545 306.224 256.13 307.1 257.09 307.76C256.55 308.256 256.55 308.84 257.09 309.512C256.065 315.168 255.578 320.91 255.628 326.739C255.172 335.412 255.269 343.88 255.92 352.143C255.53 352.337 255.141 352.532 254.75 352.727C256.256 352.976 257.62 352.781 258.845 352.143C257.994 353.092 257.019 353.773 255.92 354.186C254.75 354.186 253.581 354.186 252.411 354.186C253.877 352.748 253.487 351.678 251.241 350.975C251.436 350.78 251.631 350.585 251.826 350.391C251.265 349.394 250.875 348.323 250.656 347.179C251.131 344.273 251.521 341.353 251.826 338.419C251.233 327.647 251.233 317.038 251.826 306.592C251.589 306.04 251.199 305.65 250.656 305.424C252.204 305.134 253.764 305.036 255.335 305.132Z" fill="#43A403"/>
<path fill-rule="evenodd" clip-rule="evenodd" d="M243.051 304.548C240.821 305.029 238.482 305.321 236.032 305.424C236.695 306.017 236.5 306.407 235.447 306.592C237.246 306.794 239.001 307.183 240.711 307.76C239.932 321.775 239.932 335.791 240.711 349.807C239.932 350.196 239.151 350.585 238.372 350.975C239.932 351.364 239.932 351.753 238.372 352.143C239.794 352.78 239.794 353.462 238.372 354.187C236.811 354.187 235.252 354.187 233.692 354.187C233.172 338.347 233.172 322.384 233.692 306.3C232.12 306.396 230.56 306.298 229.012 306.008C230.688 305.901 232.248 305.609 233.692 305.132C236.785 304.64 239.904 304.445 243.051 304.548Z" fill="#157E03"/>
<path fill-rule="evenodd" clip-rule="evenodd" d="M392.801 303.964C398.654 303.867 404.504 303.964 410.35 304.256C409.188 305.506 408.408 306.966 408.01 308.636C405.959 309.781 405.179 311.533 405.67 313.892C404.891 313.892 404.11 313.892 403.331 313.892C403.511 315.307 403.315 316.67 402.746 317.979C402.011 319.441 401.133 320.415 400.113 320.899C399.824 322.052 399.726 323.22 399.821 324.403C396.323 331.777 392.52 338.98 388.414 346.011C386.783 348.713 384.54 350.66 381.687 351.851C376.627 352.342 371.557 352.245 366.478 351.559C369.013 351.364 371.548 351.169 374.083 350.975C371.139 350.778 368.214 350.486 365.308 350.099C365.308 349.515 365.308 348.931 365.308 348.347C366.478 348.347 367.648 348.347 368.818 348.347C368.818 347.763 368.818 347.179 368.818 346.595C370.39 346.69 371.95 346.593 373.498 346.303C370.892 346.149 368.356 345.661 365.893 344.843C365.309 338.821 365.114 332.786 365.308 326.739C364.277 326.823 363.302 326.628 362.383 326.155C361.814 324.845 361.618 323.483 361.798 322.067C361.019 322.067 360.238 322.067 359.458 322.067C359.554 320.498 359.457 318.941 359.166 317.395C358.575 316.907 357.892 316.712 357.119 316.811C356.962 315.282 357.157 313.822 357.704 312.432C356.671 311.208 355.891 309.845 355.364 308.344C359.264 307.954 359.264 307.565 355.364 307.176C359.849 306.981 364.333 306.786 368.818 306.592C364.234 305.677 364.234 305.093 368.818 304.84C376.913 304.741 384.908 304.449 392.801 303.964Z" fill="#58AE03"/>
<path fill-rule="evenodd" clip-rule="evenodd" d="M252.411 303.964C258.065 303.964 263.72 303.964 269.375 303.964C269.955 303.863 270.344 304.058 270.544 304.548C269.765 304.548 268.984 304.548 268.205 304.548C263.89 304.416 259.6 304.611 255.335 305.132C253.764 305.036 252.204 305.134 250.656 305.424C251.199 305.65 251.589 306.04 251.826 306.592C251.233 317.038 251.233 327.647 251.826 338.419C251.521 341.353 251.131 344.273 250.656 347.179C250.875 348.323 251.265 349.394 251.826 350.391C251.631 350.585 251.436 350.78 251.241 350.975C253.487 351.678 253.877 352.748 252.411 354.187C250.071 354.187 247.731 354.187 245.391 354.187C245.391 353.408 245.391 352.629 245.391 351.851C246.006 351.938 246.591 351.841 247.146 351.559C246.46 351.314 245.875 350.925 245.391 350.391C245.744 349.325 246.134 348.254 246.561 347.179C247.133 347.457 247.62 347.846 248.023 348.347C248.49 347.319 248.393 346.346 247.731 345.427C246.232 346.092 245.452 345.508 245.391 343.675C246.256 332.597 246.938 321.501 247.438 310.388C247.534 309.117 248.021 308.046 248.901 307.176C247.731 306.981 246.561 306.786 245.391 306.592C246.171 306.202 246.171 305.813 245.391 305.424C246.683 305.312 247.853 305.02 248.901 304.548C250.208 304.72 251.378 304.525 252.411 303.964Z" fill="#3A9B05"/>
<path fill-rule="evenodd" clip-rule="evenodd" d="M268.205 304.548C268.984 304.548 269.765 304.548 270.544 304.548C270.544 321.094 270.544 337.64 270.544 354.187C270.154 354.187 269.765 354.187 269.375 354.187C269.183 337.889 269.377 321.635 269.959 305.424C269.236 305.288 268.651 304.996 268.205 304.548Z" fill="#68B61F"/>
<path fill-rule="evenodd" clip-rule="evenodd" d="M190.405 320.899C191.719 321.544 192.791 322.518 193.622 323.819C194.15 323.677 194.637 323.482 195.084 323.235C195.181 325.192 195.083 327.138 194.792 329.075C193.175 326.43 191.712 323.704 190.405 320.899Z" fill="#578F17"/>
<path fill-rule="evenodd" clip-rule="evenodd" d="M375.837 354.187C363.46 354.769 350.981 354.964 338.4 354.771C338.588 358.191 338.393 361.501 337.815 364.698C337.815 361.194 337.815 357.69 337.815 354.187C350.489 354.187 363.163 354.187 375.837 354.187Z" fill="#244D03"/>
<path fill-rule="evenodd" clip-rule="evenodd" d="M373.498 403.825C379.545 403.728 385.59 403.825 391.631 404.117C393.952 404.68 395.805 405.946 397.188 407.913C402.185 425.267 407.255 442.592 412.397 459.888C412.985 461.928 412.692 463.776 411.52 465.436C406.902 466.37 402.222 466.565 397.481 466.019C396.243 465.009 395.365 463.743 394.849 462.224C394.544 460.227 394.056 458.281 393.386 456.384C386.561 455.605 379.737 455.605 372.913 456.384C372.036 459.106 371.158 461.831 370.28 464.56C369.595 465.373 368.718 465.86 367.648 466.019C363.553 466.409 359.458 466.409 355.364 466.019C353.788 464.47 353.301 462.621 353.901 460.472C358.569 444.945 363.054 429.372 367.355 413.753C368.242 411.185 369.217 408.655 370.28 406.161C371.459 405.462 372.532 404.684 373.498 403.825Z" fill="#030405"/>
<path fill-rule="evenodd" clip-rule="evenodd" d="M234.277 412.001C234.937 419.371 235.034 426.769 234.569 434.192C233.299 438.868 230.276 441.593 225.502 442.368C225.415 442.983 225.512 443.567 225.795 444.12C229.11 449.57 232.424 455.021 235.739 460.472C236.592 462.972 235.91 464.821 233.692 466.02C229.212 466.312 224.727 466.408 220.238 466.312C215.808 459.613 211.518 452.8 207.369 445.872C206.057 445.303 204.692 445.108 203.274 445.288C203.372 451.52 203.274 457.75 202.981 463.976C202.299 464.657 201.617 465.338 200.934 466.02C196.645 466.409 192.354 466.409 188.065 466.02C187.362 465.492 186.875 464.811 186.603 463.976C186.212 444.704 186.212 425.433 186.603 406.161C187.427 405.41 188.305 404.728 189.235 404.117C200.154 403.728 211.073 403.728 221.993 404.117C227.276 404.997 231.371 407.625 234.277 412.001Z" fill="#030404"/>
<path fill-rule="evenodd" clip-rule="evenodd" d="M310.907 404.409C311.686 404.799 312.271 405.383 312.662 406.161C312.564 414.534 312.662 422.905 312.954 431.272C313.254 430.673 313.547 430.089 313.832 429.521C319.324 420.822 325.173 412.354 331.38 404.117C336.255 403.728 341.13 403.728 346.004 404.117C347.972 405.884 348.265 407.928 346.882 410.249C341.211 418.15 335.653 426.131 330.21 434.192C335.817 442.858 341.57 451.423 347.467 459.888C349.001 462.498 348.514 464.541 346.004 466.02C341.084 466.548 336.209 466.354 331.38 465.436C325.401 456.842 319.551 448.18 313.832 439.448C313.666 438.988 313.373 438.598 312.954 438.28C312.662 446.843 312.564 455.409 312.662 463.976C312.061 464.965 311.281 465.743 310.322 466.312C306.222 466.408 302.128 466.312 298.038 466.02C297.355 465.338 296.673 464.657 295.99 463.976C295.893 454.534 295.795 445.094 295.698 435.652C295.612 425.59 295.905 415.565 296.575 405.577C297.103 404.876 297.785 404.389 298.623 404.117C302.764 403.653 306.859 403.75 310.907 404.409Z" fill="#030405"/>
<path fill-rule="evenodd" clip-rule="evenodd" d="M203.274 419.009C207.568 418.912 211.858 419.009 216.143 419.301C218.186 420.397 218.966 422.149 218.483 424.557C218.385 425.822 218.288 427.087 218.19 428.352C217.898 429.423 217.215 430.104 216.143 430.396C211.858 430.688 207.568 430.785 203.274 430.688C203.274 426.795 203.274 422.902 203.274 419.009Z" fill="#DCF1F9"/>
<path fill-rule="evenodd" clip-rule="evenodd" d="M312.662 406.161C313.052 413.947 313.441 421.734 313.832 429.521C313.547 430.089 313.254 430.673 312.954 431.272C312.662 422.905 312.564 414.534 312.662 406.161Z" fill="#778083"/>
<path fill-rule="evenodd" clip-rule="evenodd" d="M382.857 419.009C383.81 420.386 384.492 421.943 384.904 423.681C386.735 429.433 388.197 435.273 389.292 441.2C385.197 441.2 381.102 441.2 377.007 441.2C378.603 433.7 380.552 426.302 382.857 419.009Z" fill="#D7EDF4"/>
<path fill-rule="evenodd" clip-rule="evenodd" d="M310.907 404.409C306.859 403.75 302.764 403.653 298.623 404.117C297.785 404.389 297.103 404.876 296.575 405.577C295.905 415.565 295.612 425.59 295.698 435.652C295.795 445.094 295.893 454.534 295.99 463.976C296.673 464.657 297.355 465.338 298.038 466.02C302.128 466.312 306.222 466.408 310.322 466.312C305.602 467.087 300.825 467.087 295.99 466.312C295.171 467.3 294.098 467.689 292.773 467.479C292.773 468.842 292.773 470.205 292.773 471.567C291.798 471.567 290.823 471.567 289.848 471.567C289.848 470.205 289.848 468.842 289.848 467.479C288.898 467.561 288.216 467.172 287.801 466.312C286.946 467.119 286.459 466.924 286.338 465.728C287.25 463.423 287.639 460.989 287.508 458.428C287.411 456.578 287.314 454.729 287.216 452.88C286.923 452.588 286.631 452.296 286.338 452.004C278.009 451.245 269.624 450.855 261.185 450.836C260.698 450.349 260.21 449.862 259.723 449.376C259.431 447.048 259.333 444.712 259.43 442.368C266.453 442.466 273.472 442.368 280.489 442.076C281.366 441.59 282.049 440.908 282.536 440.032C282.926 436.528 282.926 433.024 282.536 429.521C281.765 428.36 280.692 427.679 279.319 427.477C272.692 427.185 266.062 427.087 259.43 427.185C259.271 424.614 259.466 422.083 260.015 419.593C268.393 419.106 276.777 418.814 285.168 418.717C285.656 418.23 286.144 417.743 286.631 417.257C286.923 413.563 287.02 409.865 286.923 406.161C286.366 404.929 285.391 404.247 283.999 404.117C273.369 403.633 262.84 403.731 252.411 404.409C248.259 405.532 245.237 408.062 243.344 412.001C242.954 427.185 242.954 442.368 243.344 457.552C244.08 459.22 244.958 460.777 245.976 462.224C246.053 462.735 245.858 463.125 245.391 463.392C244.835 462.909 244.25 462.812 243.636 463.1C244.416 464.174 244.318 464.466 243.344 463.976C243.096 464.826 242.609 465.118 241.881 464.852C241.167 462.839 241.167 460.795 241.881 458.72C240.42 455.81 239.055 456.004 237.787 459.304C238.495 461.179 238.495 463.029 237.787 464.852C237.007 465.241 236.422 465.825 236.032 466.604C230.33 467.082 225.065 466.985 220.238 466.312C224.727 466.408 229.212 466.312 233.692 466.02C235.91 464.821 236.592 462.972 235.739 460.472C232.424 455.021 229.11 449.57 225.795 444.12C225.512 443.567 225.415 442.983 225.502 442.368C230.276 441.593 233.299 438.868 234.569 434.192C235.034 426.769 234.937 419.371 234.277 412.001C235.091 411.404 235.871 411.599 236.617 412.585C236.675 416.631 236.48 420.719 236.032 424.849C236.065 428.131 236.455 431.343 237.202 434.484C236.462 435.265 236.169 436.141 236.324 437.112C237.094 435.636 237.777 435.636 238.372 437.112C238.944 436.834 239.431 436.445 239.834 435.944C240.312 433.735 240.897 431.594 241.589 429.521C241.784 423.681 241.979 417.841 242.174 412.001C242.743 410.896 243.133 409.728 243.344 408.497C245.582 406.998 247.63 405.246 249.486 403.241C261.886 402.778 274.171 402.389 286.338 402.073C286.287 403.882 286.58 404.077 287.216 402.657C288.203 403.139 288.301 403.723 287.508 404.409C287.983 404.827 288.373 405.314 288.678 405.869C287.698 409.917 288.089 413.811 289.848 417.549C289.458 418.327 288.873 418.911 288.093 419.301C288.288 419.495 288.483 419.69 288.678 419.885C287.508 420.079 286.338 420.274 285.168 420.469C286.54 421.755 288.1 422.631 289.848 423.097C289.848 423.681 289.848 424.265 289.848 424.849C290.823 424.849 291.798 424.849 292.773 424.849C292.773 426.406 292.773 427.963 292.773 429.521C291.798 429.521 290.823 429.521 289.848 429.521C290.039 432.466 289.845 435.386 289.263 438.28C287.338 439.28 287.046 440.642 288.386 442.368C288.571 441.316 288.961 441.122 289.556 441.784C290.638 443.947 291.711 446.088 292.773 448.208C292.71 448.758 292.515 449.245 292.188 449.668C295.306 448.83 295.891 446.98 293.943 444.12C294.265 431.072 294.558 418.03 294.82 404.993C295.922 404.131 297.092 403.352 298.33 402.657C302.403 402.808 306.498 402.808 310.614 402.657C311.625 403.155 311.723 403.739 310.907 404.409Z" fill="#D9EDF6"/>
<path fill-rule="evenodd" clip-rule="evenodd" d="M252.411 404.409C263.038 404.038 273.568 404.428 283.999 405.577C284.341 405.455 284.634 405.26 284.876 404.993C285.188 406.418 285.87 406.806 286.923 406.161C287.02 409.865 286.923 413.563 286.631 417.257C286.144 417.743 285.656 418.23 285.168 418.717C276.777 418.814 268.393 419.106 260.015 419.593C259.466 422.083 259.271 424.614 259.43 427.185C266.062 427.087 272.692 427.185 279.319 427.477C280.692 427.679 281.765 428.36 282.536 429.521C282.926 433.024 282.926 436.528 282.536 440.032C282.049 440.908 281.366 441.59 280.489 442.076C273.472 442.368 266.453 442.466 259.43 442.368C259.333 444.712 259.431 447.048 259.723 449.376C260.21 449.862 260.698 450.35 261.185 450.836C269.624 450.855 278.009 451.245 286.338 452.004C286.631 452.296 286.923 452.588 287.216 452.88C287.314 454.729 287.411 456.578 287.508 458.428C287.639 460.989 287.25 463.423 286.338 465.728C275.054 466.394 263.745 466.491 252.411 466.02C249.882 465.344 247.737 464.078 245.976 462.224C244.958 460.777 244.08 459.22 243.344 457.552C242.954 442.368 242.954 427.185 243.344 412.001C245.237 408.062 248.259 405.532 252.411 404.409Z" fill="#020203"/>
<path fill-rule="evenodd" clip-rule="evenodd" d="M252.411 404.409C262.84 403.731 273.369 403.633 283.999 404.117C285.391 404.247 286.366 404.929 286.923 406.161C285.87 406.806 285.188 406.418 284.876 404.993C284.634 405.26 284.341 405.455 283.999 405.577C273.568 404.428 263.038 404.038 252.411 404.409Z" fill="#192020"/>
<path fill-rule="evenodd" clip-rule="evenodd" d="M313.832 439.448C313.441 447.624 313.052 455.8 312.662 463.976C312.564 455.409 312.662 446.843 312.954 438.28C313.374 438.598 313.666 438.987 313.832 439.448Z" fill="#818B90"/>
</g>
<defs>
<clipPath id="clip0_5_4">
<rect width="599" height="598" fill="white"/>
</clipPath>
</defs>
</svg>
