<svg width="264" height="245" viewBox="0 0 264 245" fill="none" xmlns="http://www.w3.org/2000/svg">
<path fill-rule="evenodd" clip-rule="evenodd" d="M157.631 41.4599C149.125 41.3766 140.666 41.4604 132.254 41.7115C132.037 41.6403 131.853 41.5145 131.703 41.3341C140.392 41.125 149.035 41.167 157.631 41.4599Z" fill="#2A4F08"/>
<path fill-rule="evenodd" clip-rule="evenodd" d="M177.629 180.282C175.239 184.289 172.831 188.337 170.406 192.43C149.192 214.612 125.516 217.649 99.3754 201.541C79.8914 184.287 75.0758 163.636 84.9285 139.587C67.2227 133.871 56.1866 121.926 51.8212 103.752C47.9796 76.4681 58.6136 57.6392 83.7246 47.2651C94.1589 46.8605 104.592 46.4548 115.026 46.0503C118.469 41.4682 122.483 37.4194 127.065 33.9026C129.473 33.0924 131.881 33.0924 134.289 33.9026C138.151 38.0049 142.164 41.8521 146.328 45.4429C156.336 46.4536 166.369 47.061 176.425 47.2651C202.82 55.3469 214.657 73.3656 211.94 101.322C207.991 120.891 196.554 133.039 177.629 137.765C179.839 144.868 181.043 152.157 181.241 159.631C181.293 166.756 180.089 173.64 177.629 180.282Z" fill="#05080B"/>
<path fill-rule="evenodd" clip-rule="evenodd" d="M140.308 57.5906C152.565 57.1934 164.604 57.5979 176.425 58.8054C171.5 60.5 166.284 61.5119 160.775 61.8423C161.325 62.3452 161.727 62.9526 161.978 63.6645C161.084 64.4929 160.282 65.3032 159.571 66.094C137.094 66.2969 114.622 66.094 92.1521 65.4866C89.2627 65.2607 86.4528 64.6533 83.7247 63.6645C86.5708 61.7257 89.7804 60.3093 93.356 59.4128C102.586 59.0082 111.815 58.6025 121.046 58.198C124.142 55.2607 127.353 52.6283 130.677 50.302C133.657 51.7318 134.861 54.1613 134.289 57.5906C136.296 57.5906 138.301 57.5906 140.308 57.5906Z" fill="#1179B7"/>
<path fill-rule="evenodd" clip-rule="evenodd" d="M167.998 67.3086C173.757 68.459 177.971 71.6976 180.639 77.0268C181.241 86.3307 181.441 95.6443 181.241 104.966C179.88 110.791 176.671 115.245 171.61 118.329C170.005 118.329 168.399 118.329 166.794 118.329C141.882 118.678 117.001 118.273 92.1521 117.114C90.162 116.92 88.5572 116.111 87.3365 114.685C86.6755 111.768 85.6727 108.933 84.3267 106.181C83.1036 94.6822 83.7055 83.3448 86.1326 72.1677C87.0837 70.5958 88.2876 69.1782 89.7443 67.916C115.826 67.3086 141.911 67.1058 167.998 67.3086Z" fill="#020204"/>
<path fill-rule="evenodd" clip-rule="evenodd" d="M104.191 81.8861C107.124 81.6638 109.733 82.4741 112.016 84.3157C113.167 89.2622 112.565 93.9184 110.211 98.2855C107.479 99.2063 104.87 99.0034 102.385 97.6781C101.155 92.0549 101.757 86.7914 104.191 81.8861Z" fill="#E9E9E9"/>
<path fill-rule="evenodd" clip-rule="evenodd" d="M153.551 81.8859C157.004 81.3818 159.613 82.5966 161.376 85.5302C162.608 90.167 162.006 94.4187 159.57 98.2853C156.531 99.3737 153.922 98.7663 151.745 96.4631C150.534 91.2372 151.136 86.3781 153.551 81.8859Z" fill="#ECECEC"/>
<path fill-rule="evenodd" clip-rule="evenodd" d="M176.425 58.8054C197.401 67.9356 204.824 83.7276 198.697 106.181C194.864 117.14 187.44 124.024 176.425 126.832C177.248 124.797 178.854 123.986 181.241 124.403C181.048 122.339 181.248 120.314 181.843 118.329C183.06 119.346 184.465 119.75 186.056 119.544C186.391 116.155 185.588 113.118 183.649 110.433C185.617 107.068 187.423 103.627 189.066 100.108C190.18 100.772 191.183 101.581 192.076 102.537C190.151 105.467 188.546 108.504 187.26 111.648C187.169 114.996 188.774 116.413 192.076 115.9C191.883 113.836 192.083 111.811 192.678 109.826C195.38 107.614 196.783 104.78 196.892 101.322C195.688 101.322 194.484 101.322 193.28 101.322C193.676 93.9888 193.275 86.7002 192.076 79.4565C189.902 81.1074 188.096 80.7016 186.658 78.2417C185.054 79.052 183.85 80.2667 183.047 81.886C182.84 89.7978 182.238 97.4922 181.241 104.967C181.441 95.6445 181.241 86.3309 180.639 77.027C177.971 71.6978 173.757 68.4592 167.998 67.3088C165.461 66.1329 162.651 65.7272 159.571 66.094C160.282 65.3032 161.084 64.493 161.978 63.6645C161.727 62.9526 161.325 62.3453 160.775 61.8423C166.284 61.5119 171.5 60.5 176.425 58.8054Z" fill="#1179AE"/>
<path fill-rule="evenodd" clip-rule="evenodd" d="M86.1325 72.1678C83.7055 83.3449 83.1035 94.6824 84.3267 106.181C85.6727 108.933 86.6755 111.768 87.3364 114.685C81.9707 108.322 79.9637 100.832 81.3169 92.2115C81.518 87.5553 81.7178 82.8979 81.9189 78.2417C82.758 75.7101 84.163 73.6851 86.1325 72.1678Z" fill="#05101F"/>
<path fill-rule="evenodd" clip-rule="evenodd" d="M92.152 117.114C117.001 118.273 141.882 118.678 166.794 118.329C142.922 119.741 118.844 119.943 94.5598 118.936C93.4571 118.599 92.6553 117.991 92.152 117.114Z" fill="#003051"/>
<path fill-rule="evenodd" clip-rule="evenodd" d="M176.425 126.832C145.848 127.406 115.35 126.798 84.9286 125.01C87.0643 123.832 89.2711 122.819 91.5501 121.973C94.9126 125.225 97.9223 125.022 100.579 121.366C123.481 120.671 146.355 120.671 169.202 121.366C170.262 120.506 171.064 119.493 171.61 118.329C176.671 115.245 179.88 110.791 181.241 104.967C182.238 97.4921 182.84 89.7978 183.047 81.886C183.85 80.2667 185.054 79.0519 186.658 78.2417C188.096 80.7016 189.902 81.1073 192.076 79.4565C193.275 86.7001 193.676 93.9887 193.28 101.322C194.484 101.322 195.688 101.322 196.892 101.322C196.783 104.78 195.379 107.614 192.678 109.826C192.083 111.811 191.883 113.836 192.076 115.9C188.774 116.413 187.169 114.996 187.26 111.648C188.546 108.504 190.151 105.467 192.076 102.537C191.183 101.581 190.18 100.772 189.066 100.108C187.423 103.627 185.617 107.068 183.649 110.433C185.588 113.118 186.391 116.155 186.056 119.544C184.465 119.75 183.06 119.346 181.843 118.329C181.248 120.314 181.048 122.339 181.241 124.403C178.853 123.986 177.247 124.796 176.425 126.832Z" fill="#0975B4"/>
<path fill-rule="evenodd" clip-rule="evenodd" d="M140.308 57.5906C138.301 57.5906 136.295 57.5906 134.289 57.5906C134.86 54.1613 133.656 51.7318 130.677 50.302C127.353 52.6283 124.142 55.2607 121.046 58.198C111.815 58.6025 102.586 59.0083 93.3558 59.4128C89.7802 60.3093 86.5706 61.7257 83.7246 63.6645C86.4527 64.6533 89.2626 65.2607 92.1519 65.4866C114.622 66.094 137.094 66.2969 159.57 66.094C162.651 65.7272 165.461 66.1329 167.998 67.3088C141.91 67.1059 115.825 67.3088 89.7441 67.9162C88.2874 69.1783 87.0835 70.5959 86.1324 72.1679C84.1628 73.6851 82.7579 75.7101 81.9188 78.2417C81.7177 82.8979 81.5179 87.5553 81.3168 92.2115C79.9636 100.832 81.9705 108.322 87.3363 114.685C88.5571 116.111 90.1619 116.92 92.1519 117.114C92.6552 117.991 93.457 118.599 94.5597 118.936C118.844 119.943 142.922 119.741 166.794 118.329C168.399 118.329 170.005 118.329 171.61 118.329C171.064 119.493 170.262 120.506 169.202 121.366C146.355 120.671 123.481 120.671 100.579 121.366C97.9222 125.022 94.9125 125.225 91.55 121.973C89.271 122.819 87.0642 123.832 84.9285 125.01C115.35 126.798 145.848 127.406 176.425 126.832C146.933 128.245 117.238 128.448 87.3363 127.44C74.6953 124.403 66.87 116.507 63.8602 103.752C59.9969 88.1797 63.8097 75.0201 75.2973 64.2719C79.5531 60.9106 84.3687 58.8856 89.7441 58.198C99.7762 57.7935 109.81 57.3878 119.842 56.9832C123.272 53.3195 126.883 49.8769 130.677 46.6577C134.774 49.5732 137.985 53.2175 140.308 57.5906Z" fill="#1271A6"/>
<path fill-rule="evenodd" clip-rule="evenodd" d="M130.677 146.269C134.71 146.068 138.723 146.271 142.716 146.876C143.97 149.206 145.374 151.433 146.93 153.557C150.239 147.468 151.242 147.468 149.939 153.557C148.974 155.321 148.372 157.345 148.134 159.631C144.165 161.822 139.952 162.43 135.493 161.453C138.211 158.097 137.609 155.06 133.687 152.342C131.853 156.054 129.445 159.293 126.463 162.061C124.379 160.553 122.173 159.338 119.842 158.416C119.708 157.667 119.307 157.059 118.638 156.594C120.292 153.456 122.098 150.419 124.056 147.483C126.101 146.383 128.309 145.978 130.677 146.269Z" fill="#081213"/>
<path fill-rule="evenodd" clip-rule="evenodd" d="M164.386 140.195C154.746 139.993 145.115 140.195 135.492 140.802C136.696 141.207 137.9 141.612 139.104 142.017C134.636 142.229 130.222 142.837 125.861 143.839C127.606 144.655 129.211 145.466 130.677 146.268C128.309 145.978 126.101 146.383 124.055 147.483C122.098 150.419 120.292 153.456 118.638 156.594C119.307 157.059 119.708 157.667 119.842 158.416C118.638 158.821 117.835 159.631 117.434 160.846C114.039 160.54 110.829 161.147 107.803 162.668C108.944 163.255 110.148 163.456 111.414 163.275C111.483 166.171 111.081 169.007 110.211 171.779C112.202 176.602 113.807 181.462 115.026 186.356C117.563 187.532 120.373 187.937 123.453 187.571C122.236 190.007 121.032 192.437 119.842 194.859C119.972 196.004 120.373 197.015 121.046 197.896C126.65 198.502 132.267 198.705 137.9 198.504C114.96 202.204 99.509 192.891 91.55 170.564C89.519 159.655 91.3249 149.533 96.9676 140.195C119.636 138.581 142.109 138.581 164.386 140.195Z" fill="#54C7D2"/>
<path fill-rule="evenodd" clip-rule="evenodd" d="M117.434 160.846C119.26 160.859 120.665 161.668 121.648 163.275C123.305 166.013 125.111 168.645 127.065 171.171C123.201 169.931 120.392 171.349 118.638 175.423C122.163 176.618 125.775 177.023 129.473 176.638C129.473 179.067 129.473 181.497 129.473 183.926C125.224 186.262 120.409 187.071 115.026 186.356C113.807 181.462 112.202 176.603 110.211 171.779C111.081 169.007 111.483 166.171 111.414 163.275C110.148 163.456 108.944 163.255 107.803 162.668C110.829 161.147 114.039 160.54 117.434 160.846Z" fill="#060F11"/>
<path fill-rule="evenodd" clip-rule="evenodd" d="M149.939 153.557C149.584 156.272 149.986 158.702 151.143 160.846C148.158 162.561 145.349 164.585 142.716 166.92C143.976 170.479 145.982 173.516 148.735 176.031C145.525 176.841 142.315 176.841 139.104 176.031C140.329 174.756 140.53 173.339 139.706 171.779C137.749 174.971 135.341 177.805 132.483 180.282C131.857 182.455 132.258 184.48 133.687 186.356C136.094 187.975 138.101 190 139.706 192.43C139.959 190.537 140.561 188.918 141.512 187.571C142.014 190.704 141.211 193.336 139.104 195.467C140 196.729 141.204 197.336 142.716 197.289C141.43 198.424 139.825 198.829 137.9 198.504C132.267 198.705 126.65 198.503 121.046 197.896C120.373 197.016 119.972 196.004 119.842 194.859C121.032 192.437 122.236 190.008 123.453 187.571C125.861 187.571 128.269 187.571 130.677 187.571C130.962 186.003 130.561 184.788 129.473 183.927C129.473 181.497 129.473 179.067 129.473 176.638C125.775 177.023 122.163 176.618 118.638 175.423C120.392 171.349 123.201 169.931 127.065 171.171C125.111 168.645 123.305 166.014 121.648 163.275C120.665 161.668 119.26 160.859 117.434 160.846C117.835 159.631 118.638 158.821 119.842 158.416C122.173 159.338 124.379 160.553 126.463 162.061C129.445 159.293 131.853 156.054 133.687 152.343C137.609 155.06 138.211 158.097 135.493 161.453C139.952 162.43 144.165 161.823 148.133 159.631C148.372 157.345 148.974 155.321 149.939 153.557Z" fill="#7AD8DD"/>
<path fill-rule="evenodd" clip-rule="evenodd" d="M164.386 140.195C174.486 159.704 171.276 176.914 154.755 191.823C151.167 194.646 147.155 196.468 142.716 197.289C141.204 197.336 140 196.729 139.104 195.467C141.211 193.336 142.014 190.704 141.512 187.571C144.045 187.934 146.453 187.53 148.735 186.356C150.633 181.815 153.242 177.767 156.561 174.208C157.364 172.994 157.364 171.779 156.561 170.564C155.104 166.87 153.298 163.63 151.143 160.846C149.986 158.702 149.584 156.272 149.939 153.557C151.242 147.468 150.239 147.468 146.93 153.557C145.374 151.433 143.97 149.206 142.716 146.876C138.723 146.271 134.71 146.068 130.677 146.269C129.211 145.466 127.606 144.656 125.861 143.839C130.222 142.837 134.637 142.23 139.104 142.017C137.9 141.613 136.696 141.207 135.493 140.802C145.115 140.195 154.747 139.993 164.386 140.195Z" fill="#9AE9EE"/>
<path fill-rule="evenodd" clip-rule="evenodd" d="M151.143 160.846C153.298 163.63 155.104 166.87 156.561 170.564C157.364 171.779 157.364 172.994 156.561 174.208C153.242 177.766 150.633 181.815 148.735 186.356C146.453 187.53 144.045 187.934 141.512 187.571C140.561 188.918 139.959 190.537 139.706 192.43C138.101 190 136.094 187.975 133.687 186.356C132.258 184.48 131.857 182.455 132.483 180.282C135.341 177.805 137.749 174.971 139.706 171.779C140.53 173.339 140.329 174.756 139.104 176.031C142.315 176.841 145.525 176.841 148.735 176.031C145.982 173.516 143.976 170.479 142.716 166.92C145.349 164.585 148.158 162.561 151.143 160.846Z" fill="#061011"/>
<path fill-rule="evenodd" clip-rule="evenodd" d="M129.473 183.927C130.561 184.788 130.962 186.003 130.677 187.571C128.269 187.571 125.861 187.571 123.454 187.571C120.373 187.938 117.563 187.532 115.026 186.356C120.409 187.072 125.224 186.263 129.473 183.927Z" fill="#07373A"/>
</svg>
